<?xml version="1.0" encoding="UTF-8"?>
<svg version="1.1" xmlns="http://www.w3.org/2000/svg" width="512" height="512">
<path d="M0 0 C1.07167539 -0.00445784 2.14335079 -0.00891569 3.24750119 -0.01350862 C4.42919108 -0.01332426 5.61088096 -0.01313989 6.82837963 -0.01294994 C8.70635031 -0.01846498 8.70635031 -0.01846498 10.6222598 -0.02409142 C14.10418283 -0.03411443 17.58608862 -0.03782869 21.06802404 -0.04048073 C24.82068482 -0.04438282 28.57333194 -0.05396113 32.325984 -0.0626936 C41.39120655 -0.08245928 50.45643023 -0.09252372 59.52166894 -0.10142139 C63.78910014 -0.10580356 68.05653009 -0.1111705 72.3239603 -0.11641026 C86.50666865 -0.13342158 100.68937622 -0.14791673 114.8720932 -0.155159 C118.55284978 -0.15706893 122.23360635 -0.15898926 125.91436291 -0.16094494 C127.28663546 -0.16167055 127.28663546 -0.16167055 128.68663069 -0.16241082 C143.51340359 -0.1707148 158.34009592 -0.19605834 173.16683362 -0.22852562 C188.38370618 -0.26157603 203.60053776 -0.27960587 218.81744641 -0.28280324 C227.36343202 -0.28497006 235.90930007 -0.29374394 244.45525074 -0.31926441 C251.7317866 -0.34094377 259.00817635 -0.34903546 266.28474084 -0.33929763 C269.99793284 -0.33474503 273.71082318 -0.33669444 277.42397404 -0.35605907 C281.44847509 -0.37686642 285.47230372 -0.36673113 289.49683666 -0.35352612 C290.67183438 -0.36449536 291.8468321 -0.37546461 293.05743581 -0.38676625 C299.33538505 -0.33686308 303.09388584 -0.08925085 307.85308361 4.13422108 C308.46502166 4.66126039 309.07695971 5.18829969 309.70744133 5.73130989 C310.22896688 6.24948375 310.75049242 6.7676576 311.28782177 7.3015337 C311.89755337 7.90273533 312.50728497 8.50393696 313.13549328 9.12335682 C313.78246166 9.77123158 314.42943005 10.41910633 315.09600353 11.08661366 C315.79431789 11.77821079 316.49263226 12.46980793 317.21210766 13.18236256 C319.5078939 15.45922462 321.7961329 17.74348681 324.08355236 20.02875233 C325.68190121 21.62067101 327.28039895 23.21244022 328.87903881 24.80406666 C332.2238104 28.1368806 335.5644396 31.47378524 338.90264416 34.81317616 C343.17635853 39.08709399 347.46367819 43.3470751 351.75465965 47.60364723 C355.0583612 50.885095 358.35291574 54.17560969 361.64497852 57.46872997 C363.22178532 59.04317994 364.80182882 60.6143954 366.38517857 62.18226528 C368.59920487 64.37665749 370.80015306 66.58340859 372.99834728 68.79364491 C373.9779089 69.756348 373.9779089 69.756348 374.97725964 70.73849964 C375.57853176 71.34816074 376.17980389 71.95782185 376.79929638 72.58595753 C377.31969085 73.10526246 377.84008532 73.62456739 378.37624931 74.15960884 C382.19578596 79.26654861 383.2281164 84.04288332 383.23060703 90.32668591 C383.23496736 91.01923454 383.23932768 91.71178317 383.24382013 92.42531812 C383.25474357 94.73932512 383.24436836 97.05273215 383.23403454 99.3667345 C383.23749227 101.0451585 383.24225761 102.72358023 383.24821627 104.40199721 C383.2607403 109.00930866 383.25454945 113.6164337 383.24525762 118.22374582 C383.23847313 123.1945427 383.24894545 128.16530741 383.25719738 133.13609791 C383.27054389 142.87252198 383.2676527 152.60887672 383.25895946 162.34530352 C383.25218616 170.25887209 383.25126466 178.17242122 383.25453091 186.08599186 C383.25499061 187.21201695 383.2554503 188.33804204 383.25592393 189.4981891 C383.25688311 191.78566579 383.25785575 194.07314247 383.25884171 196.36061914 C383.26739849 217.81587705 383.25755734 239.27109652 383.24144061 260.72634812 C383.22804082 279.13446045 383.23036218 297.54251602 383.24419689 315.95062733 C383.26025389 337.32566247 383.26657065 358.70066389 383.2573601 380.07570422 C383.25640445 382.35540906 383.25546134 384.63511391 383.25453091 386.91481876 C383.25406808 388.03648032 383.25360525 389.15814188 383.2531284 390.31379317 C383.2505386 398.21649262 383.25490938 406.11917067 383.26196957 414.0218668 C383.27038624 423.65474047 383.26810102 433.28754081 383.25212733 442.92040609 C383.24424636 447.83490741 383.24115009 452.74928649 383.25107479 457.66378689 C383.26002591 462.16429259 383.25508188 466.66456295 383.23914213 471.16504736 C383.23579607 472.79149927 383.23748449 474.41797112 383.2447695 476.04441015 C383.32758499 496.07299423 383.32758499 496.07299423 376.22808361 503.94672108 C375.61706799 504.65441639 375.00605236 505.3621117 374.37652111 506.09125233 C366.27905426 512.64694143 357.92560489 512.70885672 347.85392284 512.64215565 C346.33392429 512.64676942 344.8139302 512.65312554 343.29394537 512.66106462 C339.13382284 512.67771555 334.97406879 512.66953103 330.81394517 512.65711975 C326.32104082 512.64805424 321.82819898 512.66204637 317.33530712 512.67303944 C308.54062016 512.6908128 299.74606985 512.68699007 290.95137756 512.67538887 C283.80347967 512.66635075 276.65562005 512.66513219 269.50771809 512.66948414 C268.48991434 512.67009707 267.4721106 512.67071 266.42346432 512.67134151 C264.35574796 512.67262042 262.28803162 512.67391728 260.22031529 512.67523187 C240.83811827 512.68663406 221.45599697 512.67352933 202.07381237 512.65203041 C185.44542934 512.63415707 168.81715799 512.63726619 152.18877697 512.65570545 C132.87379463 512.67711389 113.5588786 512.68553829 94.24388605 512.6732564 C92.18413517 512.67198221 90.12438427 512.67072473 88.06463337 512.66948414 C87.05122138 512.66886704 86.03780939 512.66824993 84.99368794 512.66761413 C77.85442119 512.66416136 70.71519654 512.66998796 63.57593632 512.67940235 C54.87556815 512.69062329 46.17534433 512.68758015 37.47499269 512.66627938 C33.03649923 512.65577068 28.5982464 512.65164409 24.15975475 512.66487598 C20.09538131 512.6768093 16.03147118 512.67022208 11.96713967 512.64896578 C10.4982363 512.64450371 9.02929366 512.64675716 7.56041562 512.65646893 C-0.45545317 512.70539522 -6.31481727 512.5091061 -13.14691639 508.13422108 C-14.03379139 507.57734608 -14.92066639 507.02047108 -15.83441639 506.44672108 C-20.45276168 501.82837579 -24.03222771 495.44588747 -24.26044178 488.85614491 C-24.26028394 487.51783693 -24.25466384 486.17952226 -24.24457264 484.84125233 C-24.24315769 484.13522373 -24.24174274 483.42919514 -24.24028492 482.70177174 C-24.23469403 480.45004482 -24.22214327 478.19841787 -24.20941639 475.94672108 C-24.20440021 474.41872772 -24.19983751 472.89073281 -24.19574451 471.3627367 C-24.18472759 467.61985973 -24.16746926 463.87705734 -24.14691639 460.13422108 C-24.90811283 460.14088291 -25.66930927 460.14754475 -26.45357227 460.15440845 C-33.64756688 460.21466495 -40.8414381 460.26026897 -48.03561974 460.28965759 C-51.73371733 460.30527482 -55.43160538 460.32644018 -59.12958241 460.36053944 C-62.70223948 460.39327476 -66.27469572 460.41110371 -69.84749126 460.41885281 C-71.20657923 460.42437103 -72.56565693 460.43514661 -73.92465878 460.45141125 C-87.65941413 460.60916559 -87.65941413 460.60916559 -93.14691639 457.13422108 C-95.49961128 453.68829405 -95.40060499 450.55447909 -95.4076128 446.46077442 C-95.41143835 445.79118196 -95.41526389 445.12158951 -95.41920537 444.43170637 C-95.42951939 442.18931683 -95.42554634 439.9471841 -95.42157459 437.70477772 C-95.42592195 436.09655489 -95.43110518 434.48833413 -95.43706226 432.88011646 C-95.4504608 428.512365 -95.45103 424.14470002 -95.44849896 419.776932 C-95.44742985 416.13121894 -95.45231107 412.48552343 -95.45710438 408.83981413 C-95.46820248 400.23945012 -95.46863525 391.63912979 -95.46259022 383.03876209 C-95.45654885 374.16483864 -95.46886487 365.29107367 -95.49016029 356.41717726 C-95.50776983 348.79923684 -95.51377868 341.18134689 -95.51052254 333.56338686 C-95.50870854 329.01312797 -95.51135749 324.46298214 -95.52523708 319.91274166 C-95.53780034 315.63388496 -95.53588564 311.35527554 -95.52282619 307.07642269 C-95.5204576 305.50627529 -95.52320525 303.93611056 -95.53144932 302.36598301 C-95.54189492 300.22191808 -95.53383466 298.07868628 -95.52113819 295.93465137 C-95.52130593 294.73506322 -95.52147367 293.53547506 -95.5216465 292.29953575 C-95.10564609 288.78561422 -94.26943484 286.94021367 -92.14691639 284.13422108 C-88.58137679 281.75719468 -87.06820278 281.89081185 -82.83954334 281.9071703 C-80.88785992 281.90739689 -80.88785992 281.90739689 -78.89674854 281.90762806 C-77.47623002 281.91784138 -76.05571306 281.92827338 -74.63519764 281.93890858 C-73.18217126 281.94263925 -71.72914236 281.94548596 -70.27611256 281.94748402 C-66.45380157 281.95511626 -62.63164285 281.97476116 -58.80939198 281.99689198 C-54.90824919 282.01735925 -51.00708178 282.02648761 -47.10590076 282.03656483 C-39.4528366 282.05800751 -31.79989784 282.09213843 -24.14691639 282.13422108 C-24.14843527 281.58325451 -24.14995415 281.03228794 -24.15151906 280.46462542 C-24.24106556 247.79712317 -24.30967987 215.12965173 -24.35117771 182.46205423 C-24.35618043 178.53807904 -24.36135773 174.6141041 -24.36664295 170.69012928 C-24.36769219 169.908949 -24.36874144 169.12776873 -24.36982247 168.32291632 C-24.38721937 155.68043196 -24.4187531 143.03802049 -24.45552757 130.39557935 C-24.49295693 117.41960804 -24.51515646 104.44367486 -24.52327037 91.46765178 C-24.52875402 83.46316596 -24.54606258 75.45888617 -24.57858226 67.45446377 C-24.60226067 61.31272628 -24.60473119 55.1711453 -24.59934711 49.0293684 C-24.60044712 46.5127088 -24.60839789 43.99604137 -24.62373829 41.47942829 C-24.64367262 38.04034819 -24.63884205 34.60214583 -24.62793446 31.16304493 C-24.63958582 30.16983205 -24.65123719 29.17661917 -24.66324162 28.15330893 C-24.59116017 19.73101589 -22.22360835 12.21091304 -16.14691639 6.13422108 C-10.85805692 2.35799687 -6.60919422 0.01273539 0 0 Z " fill="#CDD1DB" transform="translate(112.14691638946533,-0.13422107696533203)"/>
<path d="M0 0 C1.00610758 -0.00583219 2.01221515 -0.01166439 3.04881084 -0.01767331 C4.71147682 -0.01200433 4.71147682 -0.01200433 6.40773201 -0.00622082 C7.58283054 -0.01004636 8.75792906 -0.01387191 9.96863663 -0.01781338 C13.23590505 -0.02636618 16.50303063 -0.0259023 19.77030301 -0.02163279 C23.29186336 -0.01917216 26.81339695 -0.02817149 30.33494759 -0.03567028 C37.23642335 -0.0484382 44.13786026 -0.05020834 51.03934585 -0.04787002 C56.64802745 -0.0460889 62.25669723 -0.04783206 67.86537743 -0.05209446 C69.06155836 -0.05298724 69.06155836 -0.05298724 70.28190456 -0.05389806 C71.9018073 -0.05510978 73.52171004 -0.05632392 75.14161278 -0.05754044 C90.34322591 -0.0684242 105.54481687 -0.06624963 120.74643125 -0.06015559 C134.65885559 -0.05498663 148.5712099 -0.06623983 162.48362039 -0.08525381 C176.76145283 -0.10461792 191.03925212 -0.11289066 205.31709778 -0.10913056 C213.33596864 -0.10721622 221.3547799 -0.10972859 229.37364006 -0.1238451 C236.20077601 -0.13574178 243.02781569 -0.13718318 249.85495292 -0.12505493 C253.33911424 -0.11915391 256.82309934 -0.1181003 260.30724907 -0.13005733 C264.08244495 -0.14045383 267.85716313 -0.13248077 271.63234138 -0.11974621 C272.73632393 -0.12712049 273.84030647 -0.13449478 274.97774303 -0.14209253 C284.33444158 -0.07541803 284.33444158 -0.07541803 288.14702034 3.25447559 C290.55636719 6.86849587 290.4003608 8.50728706 290.40771675 12.80766773 C290.4115423 13.47640576 290.41536785 14.1451438 290.41930932 14.83414662 C290.42964521 17.07964175 290.42564612 19.32488146 290.42167854 21.57039356 C290.42602474 23.17846889 290.43120758 24.78654215 290.43716621 26.39461231 C290.45057849 30.76655504 290.45113234 35.13841143 290.44860291 39.51037073 C290.44753455 43.15851894 290.45241319 46.80664959 290.45720834 50.45479405 C290.46831157 59.06137439 290.46873657 67.66791109 290.46269417 76.27449512 C290.45665478 85.15578218 290.46896261 94.03691079 290.49026424 102.91817081 C290.50787432 110.54033732 290.51388247 118.16245337 290.51062649 125.78463948 C290.50881229 130.33826669 290.51146327 134.89178093 290.52534103 139.44538975 C290.53790486 143.728337 290.53598904 148.0110372 290.52293015 152.2939806 C290.52056152 153.86573971 290.52330928 155.43751613 290.53155327 157.00925541 C290.54199887 159.15556308 290.53393854 161.30103848 290.52124214 163.44731617 C290.52149375 165.24864663 290.52149375 165.24864663 290.52175045 167.08636761 C290.10326511 170.62439861 289.33842111 172.46282146 287.14702034 175.25447559 C283.51908002 178.09451212 279.01664922 177.54340841 274.6172657 177.53294849 C273.74696091 177.5387409 272.87665611 177.5445333 271.97997844 177.55050123 C269.05531579 177.56753967 266.13081069 177.57038172 263.20610237 177.57332325 C261.10908815 177.58262294 259.01207762 177.59279167 256.91507149 177.60376453 C251.19439361 177.63118112 245.47374061 177.6462661 239.75301409 177.65919256 C233.70812323 177.67489292 227.66328127 177.70169674 221.61842537 177.7272234 C211.40401377 177.76882601 201.18959921 177.80325114 190.97514534 177.83260059 C176.80210456 177.87332742 162.62912974 177.92610496 148.456141 177.98182249 C126.51622174 178.06783118 104.57631916 178.13711372 82.63629389 178.1894412 C69.80828152 178.22030441 56.98065769 178.26566256 44.15288925 178.35135555 C38.89138645 178.38643548 33.62985646 178.41242676 28.36828554 178.43485057 C25.10365322 178.44936748 21.8393058 178.47074368 18.57478905 178.50238895 C15.1650228 178.53521454 11.75564701 178.55025851 8.34575081 178.56062794 C6.91471582 178.58206175 6.91471582 178.58206175 5.45477104 178.60392857 C-0.06460748 178.59783139 -4.03265727 178.04714774 -8.85297966 175.25447559 C-11.22434265 171.82822672 -11.10668674 168.66393815 -11.11367607 164.58102894 C-11.11750162 163.91143648 -11.12132717 163.24184402 -11.12526864 162.55196089 C-11.13558266 160.30957134 -11.13160961 158.06743862 -11.12763786 155.82503223 C-11.13198522 154.21680941 -11.13716845 152.60858865 -11.14312553 151.00037098 C-11.15652407 146.63261951 -11.15709327 142.26495453 -11.15456223 137.89718652 C-11.15349313 134.25147346 -11.15837434 130.60577795 -11.16316766 126.96006864 C-11.17426575 118.35970464 -11.17469852 109.75938431 -11.16865349 101.15901661 C-11.16261212 92.28509315 -11.17492814 83.41132819 -11.19622356 74.53743178 C-11.2138331 66.91949135 -11.21984195 59.30160141 -11.21658581 51.68364137 C-11.21477182 47.13338248 -11.21742076 42.58323665 -11.23130035 38.03299618 C-11.24386361 33.75413947 -11.24194892 29.47553006 -11.22888947 25.19667721 C-11.22652087 23.6265298 -11.22926852 22.05636507 -11.23751259 20.48623753 C-11.24795819 18.3421726 -11.23989793 16.1989408 -11.22720146 14.05490589 C-11.2273692 12.85531774 -11.22753695 11.65572958 -11.22770977 10.41979027 C-10.81170936 6.90586874 -9.97549811 5.06046818 -7.85297966 2.25447559 C-4.61057887 0.09287507 -3.74052595 0.00372228 0 0 Z " fill="#FEC206" transform="translate(27.85297966003418,281.7455244064331)"/>
<path d="M0 0 C1.03125 0.5775 2.0625 1.155 3.125 1.75 C10.38591543 7.43245555 15.09673321 14.29019963 18 23 C18.10661267 24.58279751 18.15859606 26.16958214 18.17700195 27.75585938 C18.19625481 29.20381897 18.19625481 29.20381897 18.21589661 30.68103027 C18.22328354 31.72472778 18.23067047 32.76842529 18.23828125 33.84375 C18.246353 34.92321899 18.25442474 36.00268799 18.26274109 37.11486816 C18.27658231 39.40468745 18.28730429 41.69452738 18.29516602 43.984375 C18.31229658 47.45874221 18.35617375 50.93213729 18.40039062 54.40625 C18.41052517 56.6354097 18.41903888 58.86457746 18.42578125 61.09375 C18.44328934 62.12125366 18.46079742 63.14875732 18.47883606 64.20739746 C18.445262 75.5747305 14.81474255 84.75203078 7 93 C0.56070799 99.34197274 -9.26107055 102.09002559 -18.125 102.5 C-27.77468592 102.01516975 -36.19925112 97.73446478 -43 91 C-50.25177695 82.17726919 -52.464908 73.80796628 -52.3984375 62.59765625 C-52.40130768 61.52051865 -52.40417786 60.44338104 -52.40713501 59.33360291 C-52.40916818 57.06525138 -52.40369086 54.79688202 -52.39111328 52.52856445 C-52.37506547 49.07658238 -52.39098014 45.62577387 -52.41015625 42.17382812 C-52.40817338 39.96093494 -52.4043288 37.74804248 -52.3984375 35.53515625 C-52.40451019 34.51301529 -52.41058289 33.49087433 -52.4168396 32.4377594 C-52.30609558 21.02505187 -48.98577148 13.30758716 -41.18359375 5.0859375 C-30.21813081 -5.32571418 -13.17096387 -8.17508102 0 0 Z " fill="#F49100" transform="translate(176,322)"/>
<path d="M0 0 C1.06271755 -0.00507454 2.12543511 -0.01014909 3.22035623 -0.0153774 C4.98558747 -0.01612404 4.98558747 -0.01612404 6.78647995 -0.01688576 C8.65091834 -0.02345914 8.65091834 -0.02345914 10.55302215 -0.03016531 C14.01441113 -0.0412481 17.47575479 -0.04778339 20.93715501 -0.05234647 C24.6659768 -0.05829578 28.39478186 -0.06990728 32.12359238 -0.08063698 C41.13435254 -0.10517615 50.14511825 -0.11979023 59.15590155 -0.13269705 C61.70001647 -0.13640783 64.24413083 -0.14038116 66.7882452 -0.14444971 C82.57947179 -0.16968475 98.37069922 -0.19174262 114.16194153 -0.20417786 C117.82086566 -0.20710766 121.47978977 -0.21006931 125.13871384 -0.21308327 C126.04814648 -0.21382932 126.95757912 -0.21457537 127.89457032 -0.21534403 C142.63089582 -0.22800097 157.36710075 -0.26122768 172.10336986 -0.3028851 C187.22528892 -0.34528305 202.34714621 -0.3688704 217.46912456 -0.37409842 C225.96261862 -0.37751495 234.45592426 -0.38929843 242.94935989 -0.42220116 C250.18202252 -0.45017348 257.41445811 -0.46121347 264.64717063 -0.4500057 C268.33814496 -0.44481174 272.02864366 -0.44775267 275.71954918 -0.47247124 C279.72013708 -0.49904039 283.71967386 -0.48692871 287.72031784 -0.47098732 C288.88821578 -0.48486941 290.05611372 -0.49875149 291.25940251 -0.51305425 C300.01561924 -0.42679387 300.01561924 -0.42679387 303.7362442 2.4562645 C306.00736618 5.13701439 306.00736618 5.13701439 306.63236618 8.63701439 C305.92299939 12.6094684 304.83504911 14.30933146 302.00736618 17.13701439 C299.50137086 18.39001205 297.8018935 18.26696811 294.99632168 18.27402878 C293.92950403 18.27910332 292.86268638 18.28417786 291.76354092 18.28940618 C290.58214703 18.28990394 289.40075313 18.29040169 288.18355942 18.29091454 C286.93581137 18.29529679 285.68806333 18.29967904 284.40250474 18.30419409 C280.92779584 18.31617776 277.45310084 18.32181217 273.97837532 18.32637525 C270.23525762 18.33232448 266.4921566 18.34393594 262.74905014 18.35466576 C253.704183 18.37920415 244.65931034 18.3938184 235.61442015 18.40672582 C233.06091866 18.41043651 230.50741773 18.41440983 227.95391679 18.41847849 C212.10589243 18.44371218 196.25786725 18.46577097 180.40982723 18.47820663 C176.73783172 18.48113645 173.06583623 18.4840981 169.39384079 18.48711205 C168.02481244 18.48823112 168.02481244 18.48823112 166.62812696 18.4893728 C151.83616067 18.50203217 137.04431443 18.53526228 122.25240429 18.57691388 C107.07511946 18.61930129 91.89789615 18.64289791 76.72055227 18.6481272 C68.19523235 18.6515448 59.67010009 18.66334101 51.14483833 18.69622993 C43.88579693 18.72418773 36.62698163 18.73524865 29.36789056 18.72403447 C25.66286402 18.71883688 21.95831127 18.72180492 18.25335312 18.74650002 C14.23927879 18.77303269 10.22625374 18.76096998 6.21212387 18.7450161 C5.03742214 18.75889819 3.86272041 18.77278027 2.65242165 18.78708303 C-6.11307072 18.70085118 -6.11307072 18.70085118 -9.21612453 15.7301178 C-11.97076559 11.70927244 -11.67738979 9.93030618 -10.99263382 5.13701439 C-7.71132668 0.8713151 -5.21531722 0.01317612 0 0 Z " fill="#7A8392" transform="translate(143.99263381958008,140.8629856109619)"/>
<path d="M0 0 C1.24708219 -0.00709439 2.49416438 -0.01418877 3.77903694 -0.02149814 C7.23354995 -0.04041429 10.68735435 -0.02819113 14.1418494 -0.01077521 C17.86992865 0.00259937 21.59790428 -0.01283851 25.32597351 -0.02459717 C32.62617289 -0.04297701 39.92610462 -0.03445949 47.22629566 -0.01650894 C53.15862365 -0.00248477 59.09087899 0.00141026 65.02322197 -0.00195122 C65.86745059 -0.00242866 66.71167922 -0.0029061 67.58149053 -0.00339801 C69.29649769 -0.00442434 71.01150483 -0.0054797 72.72651195 -0.00656378 C87.89145358 -0.0151314 103.05626596 0.00154672 118.22117615 0.03126526 C132.93933032 0.06010793 147.65729833 0.06718388 162.37547302 0.05177307 C178.4008998 0.03501649 194.42623818 0.03097075 210.45166725 0.04848343 C212.16006878 0.05032783 213.86847032 0.05216256 215.57687187 0.0539875 C216.41745202 0.05489959 217.25803216 0.05581168 218.12408443 0.05675141 C224.05044606 0.0623598 229.97676456 0.05904687 235.90312386 0.05244255 C243.12365523 0.04471549 250.34400326 0.05143938 257.56449766 0.07661759 C261.24921019 0.08912675 264.93363708 0.09524221 268.61836052 0.08407593 C272.61017115 0.07220732 276.60148745 0.09126567 280.59326172 0.11352539 C281.76134402 0.10528462 282.92942633 0.09704386 284.13290507 0.08855337 C291.96443774 0.16951256 291.96443774 0.16951256 295.92938137 2.53535557 C298.89387595 5.97494933 299.00314745 8.1280489 298.73313904 12.62818909 C297.87332532 15.20763024 297.29290304 16.27844856 294.9835853 17.7213102 C292.32783326 18.79151814 290.33759688 18.88221802 287.47599888 18.8882513 C285.86979926 18.89884969 285.86979926 18.89884969 284.23115116 18.90966219 C282.46779884 18.90603956 282.46779884 18.90603956 280.66882324 18.90234375 C278.7946379 18.91019877 278.7946379 18.91019877 276.88259023 18.91821247 C273.41237758 18.93240385 269.94225445 18.93405555 266.47201693 18.93361557 C262.73028814 18.93526273 258.98859634 18.94832721 255.24688721 18.95980835 C247.06523164 18.98266334 238.883602 18.99057918 230.70191884 18.99563479 C225.59481815 18.99889059 220.48772501 19.00541227 215.38062859 19.01263618 C201.24420063 19.03220111 187.10777969 19.0486065 172.97133732 19.05151272 C172.06664657 19.05170029 171.16195582 19.05188786 170.2298502 19.05208111 C168.39578688 19.05244736 166.56172356 19.05281106 164.72766025 19.05317222 C163.81721483 19.05335503 162.90676941 19.05353785 161.96873474 19.0537262 C161.05718018 19.05390675 160.14562562 19.05408729 159.20644819 19.05427331 C144.4275355 19.05781691 129.64876833 19.0848513 114.86990613 19.12222409 C99.70159108 19.16027533 84.53334831 19.17966995 69.36498445 19.17997223 C60.84641042 19.18055744 52.32801008 19.1890908 43.80948067 19.21796989 C36.55779713 19.24244105 29.30635065 19.24979556 22.05463702 19.23472237 C18.35365431 19.22753635 14.65314012 19.22848278 10.95220947 19.25113297 C6.94260531 19.27543766 2.9340745 19.26113533 -1.07556152 19.24291992 C-2.24889902 19.25611989 -3.42223651 19.26931986 -4.63112968 19.28291982 C-13.38632663 19.19166022 -13.38632663 19.19166022 -16.485116 16.21867466 C-18.18315122 13.749895 -18.97220438 12.57830027 -18.95436096 9.62818909 C-18.97885315 8.98881409 -19.00334534 8.34943909 -19.02857971 7.69068909 C-15.89031027 -0.80677894 -7.57376669 -0.0768889 0 0 Z " fill="#7A8392" transform="translate(151.26686096191406,184.37181091308594)"/>
<path d="M0 0 C1.61664981 -0.01657153 1.61664981 -0.01657153 3.2659592 -0.03347784 C5.04098437 -0.02111669 5.04098437 -0.02111669 6.85186863 -0.00850582 C8.10949263 -0.01545135 9.36711662 -0.02239688 10.66285044 -0.02955288 C14.15597964 -0.04822279 17.64868614 -0.0418606 21.14183319 -0.03139985 C24.90812107 -0.02442002 28.67432104 -0.04039649 32.44058323 -0.05339718 C39.81988368 -0.07506315 47.19903008 -0.07490364 54.57835191 -0.06677163 C60.57508296 -0.06047704 66.571769 -0.06160369 72.56849957 -0.06804371 C73.42132525 -0.06894536 74.27415094 -0.06984702 75.15281983 -0.070776 C76.88522105 -0.07262716 78.61762226 -0.07448972 80.35002346 -0.07636356 C96.60369064 -0.09295116 112.85727109 -0.08421477 129.11093307 -0.06737798 C143.98685432 -0.05268111 158.86257359 -0.06730749 173.73846882 -0.09614814 C189.00623921 -0.12552852 204.27391634 -0.13651834 219.54171377 -0.12696594 C221.26812079 -0.12594337 222.99452782 -0.12494876 224.72093487 -0.12398243 C225.57039732 -0.12350604 226.41985977 -0.12302965 227.29506351 -0.12253882 C233.2850421 -0.12037284 239.27493258 -0.13018858 245.26489162 -0.14475346 C252.56417257 -0.16225409 259.86319598 -0.16219232 267.1624667 -0.1394018 C270.88773688 -0.12823854 274.61255297 -0.12514348 278.33780384 -0.14370251 C282.37371107 -0.16355069 286.40850633 -0.14476989 290.44439793 -0.12203121 C291.62551732 -0.13386694 292.8066367 -0.14570267 294.02354759 -0.15789706 C301.91417165 -0.06717143 301.91417165 -0.06717143 305.9392643 2.82666969 C308.29749013 6.39187958 308.46070483 8.3113114 307.7116251 12.50615788 C305.93647099 15.18522549 305.93647099 15.18522549 302.7116251 17.50615788 C298.64371691 18.26174596 294.61644799 18.18020326 290.48909092 18.14107609 C289.23469605 18.14887604 287.98030118 18.15667599 286.68789434 18.16471231 C283.20833346 18.18559424 279.7294578 18.17526509 276.24989438 18.15978122 C272.49656632 18.14847685 268.7433568 18.16592582 264.99005222 18.17968082 C257.63825701 18.20192767 250.28671686 18.1971057 242.93491161 18.18261762 C236.96060489 18.17133103 230.98636971 18.16979195 225.0120554 18.1752367 C224.16214056 18.17600287 223.31222572 18.17676903 222.43655589 18.17755841 C220.7100332 18.17915702 218.98351052 18.18077809 217.25698787 18.18242137 C201.06290365 18.1966831 184.86896089 18.18027952 168.67489988 18.15341954 C154.77610071 18.13108035 140.87751034 18.13496036 126.97871494 18.15801334 C110.84305269 18.18476388 94.70751446 18.19530977 78.57183313 18.17995203 C76.85162038 18.17835926 75.1314076 18.17678741 73.4111948 18.1752367 C72.56479145 18.17446532 71.7183881 18.17369395 70.84633616 18.17289919 C64.87839298 18.16857995 58.91052839 18.17587357 52.94259739 18.18763447 C45.670778 18.20164975 38.39922851 18.19788019 31.12744009 18.17123075 C27.4163465 18.15807921 23.70570308 18.15296235 19.99461269 18.16947651 C15.9740687 18.18709729 11.9546638 18.16607599 7.93415928 18.14107609 C6.75761296 18.1522297 5.58106664 18.16338331 4.3688674 18.1748749 C-4.40971326 18.06852505 -4.40971326 18.06852505 -7.51297665 15.097579 C-10.26685877 11.07793536 -9.97293599 9.29808549 -9.2883749 4.50615788 C-6.46080019 0.83290469 -4.58027284 0.00585925 0 0 Z " fill="#798291" transform="translate(142.28837490081787,229.49384212493896)"/>
<path d="M0 0 C7.73564751 5.52064379 14.70461894 12.75861855 16.6875 22.3125 C15.70367297 26.15836932 14.16661643 27.64188139 11 30 C7.5 31.125 7.5 31.125 4 31 C0.09456918 28.00280891 -2.47813475 24.20310875 -5 20 C-5 19.34 -5 18.68 -5 18 C-5.78375 17.690625 -6.5675 17.38125 -7.375 17.0625 C-10 16 -10 16 -12 15 C-17.53042052 14.49497657 -22.41030524 14.26192743 -27.5 16.625 C-31.74936747 20.6618991 -34.19046033 23.95256566 -34.51757812 29.88452148 C-34.54384153 31.7965373 -34.54712707 33.70896348 -34.53125 35.62109375 C-34.53699036 37.14827782 -34.53699036 37.14827782 -34.54284668 38.70631409 C-34.54556167 40.85378003 -34.53822951 43.00127927 -34.52148438 45.14868164 C-34.50009182 48.42344473 -34.52128953 51.69600843 -34.546875 54.97070312 C-34.54423122 57.06250481 -34.5391052 59.15430514 -34.53125 61.24609375 C-34.53934692 62.21921005 -34.54744385 63.19232635 -34.55578613 64.19493103 C-34.47189322 70.32343562 -33.62846526 74.00758844 -30 79 C-25.77381998 82.52939062 -21.76546416 83.66397427 -16.2734375 83.3828125 C-10.86884339 82.47276057 -7.14786879 80.3593183 -3.625 76.1875 C-1.87985109 72.76432329 -0.89384053 69.72433555 0 66 C-1.32064453 66.10441406 -1.32064453 66.10441406 -2.66796875 66.2109375 C-11.82289595 66.63769326 -11.82289595 66.63769326 -15.01171875 64.91015625 C-17.558775 62.15875165 -17.99894759 60.06104002 -18.0625 56.375 C-16.89522981 52.66720059 -16.00146505 51.39252782 -13 49 C-8.89361524 48.1794741 -4.74173603 48.39720107 -0.5625 48.4375 C1.13616211 48.40172852 1.13616211 48.40172852 2.86914062 48.36523438 C7.73454581 48.37383556 11.01742016 48.41847315 15.25390625 50.92578125 C17.72242425 55.2719192 17.65995501 58.83501893 17.5 63.75 C17.50386719 65.03390625 17.50386719 65.03390625 17.5078125 66.34375 C17.349922 76.76452301 14.14516453 84.42698131 7 92 C-0.7299154 98.97059169 -9.1069124 102.38378456 -19.546875 102.2109375 C-28.82483602 101.41315104 -38.04469066 97.39180358 -44.30078125 90.4453125 C-51.20955674 81.32623407 -53.46821515 73.82756959 -53.5390625 62.5546875 C-53.55141937 61.46721222 -53.56377625 60.37973694 -53.57650757 59.25930786 C-53.59600675 56.96491841 -53.60729402 54.67044613 -53.61083984 52.37597656 C-53.62487687 48.90544188 -53.69222402 45.43855798 -53.76171875 41.96875 C-53.89891279 28.05688614 -53.29418895 17.31299336 -43.78710938 6.47802734 C-32.15337755 -5.17522416 -14.56230826 -8.23569568 0 0 Z " fill="#F49100" transform="translate(265,322)"/>
<path d="M0 0 C0.88687516 -0.00638882 1.77375031 -0.01277764 2.68750048 -0.01936007 C5.65959827 -0.03462193 8.63036559 -0.01414075 11.60241699 0.00622559 C13.73295026 0.00272476 15.86348091 -0.00293339 17.9940033 -0.0105896 C23.78122166 -0.02485255 29.56796574 -0.00776091 35.35513878 0.01569557 C41.40798147 0.0357825 47.46080405 0.02992614 53.51367188 0.02758789 C63.67891271 0.02764149 73.84396782 0.04741242 84.00915527 0.07946777 C95.76589105 0.11636148 107.52238346 0.12514354 119.27916956 0.11817026 C130.58315477 0.11186766 141.88705642 0.12261509 153.19102478 0.14213562 C158.00432016 0.15031594 162.81757288 0.153018 167.63087463 0.15144348 C173.29769041 0.15056532 178.96427447 0.16476257 184.63102913 0.19067001 C186.71234578 0.1978396 188.79368706 0.19991164 190.87501335 0.19655228 C193.71307055 0.1928449 196.55044877 0.2075594 199.38842773 0.22705078 C200.21478871 0.22172286 201.04114968 0.21639493 201.8925519 0.21090555 C206.47578071 0.26532396 209.48034171 0.6447435 213.19421387 3.62145996 C215.53590151 7.13399142 215.69045064 8.48615352 215.19421387 12.62145996 C213.04330935 15.95907041 211.99008588 17.35616929 208.19421387 18.62145996 C205.34374594 18.72193675 202.51760437 18.76488398 199.66690063 18.76190186 C198.78581788 18.76487298 197.90473512 18.7678441 196.99695289 18.77090526 C194.03291187 18.77960429 191.06891119 18.78110152 188.1048584 18.78259277 C185.98447584 18.78722005 183.86409412 18.79224458 181.74371338 18.79763794 C175.97514455 18.81077155 170.20658737 18.81720862 164.43800592 18.8216486 C160.83632277 18.8245774 157.23464282 18.82868181 153.63296127 18.83315277 C142.37064984 18.84682941 131.1083457 18.8564956 119.84602654 18.86035466 C106.83290415 18.86483782 93.81988667 18.88239703 80.80679619 18.91135526 C70.75578314 18.93294786 60.70479966 18.94305763 50.65376365 18.94439578 C44.64696402 18.94544542 38.64026298 18.95138723 32.6334877 18.96921539 C26.9848005 18.98565449 21.33628647 18.98787183 15.68758392 18.97907639 C13.61270307 18.97830381 11.53781306 18.98267758 9.46295547 18.99253464 C6.63359374 19.00518943 3.80485131 18.99941259 0.97549438 18.98895264 C-0.26025701 19.00103724 -0.26025701 19.00103724 -1.52097309 19.01336598 C-6.11657348 18.9735454 -9.16684837 18.51651912 -12.80578613 15.62145996 C-14.38476667 12.4634989 -14.62506784 9.0147536 -13.80578613 5.62145996 C-9.63781624 0.16189437 -6.41432848 -0.09716527 0 0 Z " fill="#7A8392" transform="translate(146.8057861328125,96.3785400390625)"/>
<path d="M0 0 C0.89095871 -0.00709439 1.78191742 -0.01418877 2.69987488 -0.02149814 C5.68577188 -0.03910235 8.67037135 -0.02096086 11.65625 -0.00291443 C13.7966369 -0.00805231 15.93701957 -0.01533259 18.07739258 -0.02459717 C23.89145526 -0.0431359 29.70506028 -0.03015669 35.519104 -0.01050687 C41.59998115 0.00586036 47.68082887 -0.00293058 53.76171875 -0.00802612 C63.97403283 -0.01254922 74.18616388 0.0033363 84.3984375 0.03126526 C96.20974274 0.06331799 108.02071783 0.06330204 119.83204651 0.04605049 C131.18836614 0.03019364 142.54456459 0.03691359 153.90087891 0.0539875 C158.73652364 0.06086494 163.57207145 0.0598184 168.40771484 0.05244255 C174.10084466 0.04478855 179.79359819 0.05687728 185.48666382 0.08429146 C187.57765587 0.09118562 189.668683 0.09126228 191.75967407 0.08407593 C194.61103779 0.07540462 197.46123404 0.09129816 200.3125 0.11352539 C201.55787788 0.10116424 201.55787788 0.10116424 202.82841492 0.08855337 C206.74065092 0.14495931 208.72776895 0.36777862 212.14648438 2.44551182 C214.9310032 5.46959874 215.15625 7.56058324 215.15625 11.62818909 C213.989373 14.39184513 213.02967274 16.00662014 210.58302116 17.74777317 C206.94649573 19.06707963 203.33536677 18.91353025 199.51541138 18.90234375 C198.63417976 18.90758043 197.75294815 18.91281711 196.84501255 18.91821247 C193.88637546 18.93323772 190.92791093 18.93391818 187.96923828 18.93458557 C185.85032864 18.94220531 183.73142178 18.95063248 181.61251831 18.95980835 C175.85220013 18.98177738 170.09193503 18.99055539 164.33157969 18.99563479 C160.73406625 18.99927524 157.1365668 19.00551365 153.53905869 19.01263618 C140.99234148 19.03713814 128.44566568 19.05018439 115.89892578 19.0537262 C104.19728067 19.05736299 92.49589761 19.08726691 80.79433262 19.12913078 C70.75261855 19.16379899 60.71099148 19.17927403 50.66921794 19.17997223 C44.66959863 19.18076617 38.6702462 19.18955868 32.67068863 19.21796989 C27.02845167 19.24409117 21.38670403 19.24638873 15.74443436 19.23031425 C13.67319169 19.2284951 11.60192126 19.23523237 9.53073883 19.25113297 C6.70359533 19.2715146 3.87817659 19.26108832 1.05105591 19.24291992 C0.2308166 19.25611989 -0.5894227 19.26931986 -1.43451774 19.28291982 C-5.54537441 19.22255059 -8.09328775 18.83549906 -11.35206795 16.21867466 C-13.84375 13.62818909 -13.84375 13.62818909 -14.60546875 11.56568909 C-14.58097656 10.92631409 -14.55648437 10.28693909 -14.53125 9.62818909 C-14.53511719 8.98881409 -14.53898438 8.34943909 -14.54296875 7.69068909 C-12.06956368 0.39483504 -6.63618139 -0.09460266 0 0 Z " fill="#7A8392" transform="translate(146.84375,52.37181091308594)"/>
<path d="M0 0 C3.27203544 0.58373058 4.91097129 1.53497381 7.25238037 3.87142944 C7.87211227 4.48270187 8.49184418 5.0939743 9.13035583 5.72377014 C9.79857864 6.39806564 10.46680145 7.07236115 11.15527344 7.76708984 C11.86786819 8.47442764 12.58046295 9.18176544 13.31465149 9.91053772 C15.67050228 12.25317289 18.01519678 14.60662626 20.359375 16.9609375 C21.98989687 18.58943932 23.62086392 20.21749552 25.2522583 21.84512329 C28.66998458 25.25842426 32.08221898 28.67709946 35.49072266 32.09960938 C39.86792194 36.49391386 44.25846736 40.87459711 48.65319443 45.25136375 C52.02310357 48.61045241 55.38585923 51.97662891 58.74646759 55.34502029 C60.36305529 56.96361409 61.9818878 58.57996898 63.60295868 60.19407272 C65.86339877 62.44692569 68.11405033 64.70911614 70.36230469 66.97412109 C71.03862442 67.64436813 71.71494415 68.31461517 72.41175842 69.00517273 C73.32443733 69.93054085 73.32443733 69.93054085 74.2555542 70.87460327 C74.78868603 71.40886618 75.32181786 71.94312908 75.87110519 72.49358177 C77 74 77 74 77 77 C70.04409873 77.07641436 63.08830677 77.1287523 56.13208008 77.16479492 C53.76843216 77.17982941 51.40481189 77.20026242 49.04125977 77.22631836 C45.63290559 77.26293645 42.22492208 77.27978031 38.81640625 77.29296875 C37.76916885 77.30845261 36.72193146 77.32393646 35.64295959 77.33988953 C24.80478126 77.3423445 16.8404566 74.61897478 9 67 C1.46599684 58.00515527 -0.46675961 48.91102905 -0.29296875 37.40234375 C-0.28872391 36.32747208 -0.28447906 35.2526004 -0.28010559 34.14515686 C-0.26343339 30.74234002 -0.22580223 27.34013512 -0.1875 23.9375 C-0.17243837 21.61784715 -0.15875256 19.29818493 -0.14648438 16.97851562 C-0.11356752 11.3188048 -0.06348361 5.65944614 0 0 Z " fill="#8B93A2" transform="translate(415,2)"/>
<path d="M0 0 C4.00538252 0.64372219 5.65945826 1.72195826 8.5 4.5625 C10.04758217 7.65766435 9.6295989 10.92106074 9.61352539 14.31689453 C9.61367142 15.11697937 9.61381744 15.91706421 9.6139679 16.74139404 C9.6132698 19.39272753 9.60548221 22.04399125 9.59765625 24.6953125 C9.5957917 26.53091392 9.59436797 28.36651583 9.59336853 30.20211792 C9.58954623 35.03873055 9.57971839 39.87531327 9.56866455 44.71191406 C9.55844426 49.64517817 9.55386958 54.57844711 9.54882812 59.51171875 C9.53809588 69.19532566 9.52102289 78.87891035 9.5 88.5625 C10.59465576 88.54678955 11.68931152 88.5310791 12.81713867 88.51489258 C16.88916631 88.4604789 20.96116197 88.42610844 25.03344727 88.39770508 C26.79391896 88.38264447 28.5543533 88.36219174 30.31469727 88.33618164 C32.84921503 88.29967771 35.38323552 88.28274646 37.91796875 88.26953125 C38.70149216 88.25404739 39.48501556 88.23856354 40.2922821 88.22261047 C44.88963274 88.22120348 47.87339853 88.66418623 51.5 91.5625 C53.5 94.5625 53.5 94.5625 53.375 98 C52.43034068 101.84611296 51.55957584 103.1519251 48.5 105.5625 C45.13232433 107.24633783 41.32295818 106.76900265 37.6171875 106.80078125 C36.72895294 106.808853 35.84071838 106.81692474 34.92556763 106.82524109 C33.04089309 106.83908851 31.1561934 106.84980772 29.27148438 106.85766602 C26.4070574 106.87480815 23.54380604 106.91867907 20.6796875 106.96289062 C18.84636264 106.97302398 17.01302797 106.98153807 15.1796875 106.98828125 C13.90579666 107.01454338 13.90579666 107.01454338 12.60617065 107.04133606 C6.76897804 107.02035144 2.3783079 105.84367966 -2.5 102.5625 C-4.875 100.0625 -4.875 100.0625 -6.5 97.5625 C-7.0357943 96.75666725 -7.0357943 96.75666725 -7.58241272 95.93455505 C-8.95393716 92.38902696 -8.80328373 88.85906937 -8.80639648 85.10961914 C-8.81472 84.25875229 -8.82304352 83.40788544 -8.83161926 82.53123474 C-8.85570484 79.71999532 -8.86448888 76.90898789 -8.87109375 74.09765625 C-8.88006 72.14236888 -8.88918185 70.18708222 -8.89845276 68.23179626 C-8.91494055 64.13376193 -8.9226427 60.03580928 -8.92553711 55.93774414 C-8.93092578 50.68724589 -8.96862679 45.43751522 -9.01428127 40.18723392 C-9.04402344 36.14917698 -9.05126002 32.11130569 -9.05226326 28.07314873 C-9.05646993 26.13744014 -9.06892208 24.20173122 -9.08978081 22.26613045 C-9.11664117 19.55843711 -9.11188657 16.85253397 -9.09936523 14.14477539 C-9.12161667 12.94686874 -9.12161667 12.94686874 -9.14431763 11.72476196 C-9.09127283 7.69606599 -8.67322276 5.78671187 -6.18128967 2.56126404 C-3.5 0.5625 -3.5 0.5625 0 0 Z " fill="#F49200" transform="translate(61.5,317.4375)"/>
<path d="M0 0 C5.13342515 2.47504427 8.44442068 6.03714131 11.08837891 11.07299805 C12.37230766 15.19539274 12.324922 19.09950893 12.3359375 23.39453125 C12.3425943 24.30071701 12.3492511 25.20690277 12.35610962 26.14054871 C12.36621438 28.05437192 12.37092731 29.96823021 12.37060547 31.88208008 C12.3749699 34.79242846 12.41128796 37.70124864 12.44921875 40.61132812 C12.45508932 42.47655735 12.45905711 44.34179373 12.4609375 46.20703125 C12.47530853 47.06875443 12.48967957 47.9304776 12.50448608 48.8183136 C12.46073582 54.67794917 11.29823528 59.10274894 8 64 C2.88420252 68.86000761 -1.4249523 70.5331869 -8.3984375 70.37890625 C-14.22024488 69.53098536 -17.90445612 66.40454344 -21.4375 61.875 C-23.34657106 58.36230924 -24.12473778 55.74713478 -24.16113281 51.80737305 C-24.17074036 50.96607346 -24.1803479 50.12477386 -24.19024658 49.25798035 C-24.19449646 48.35171402 -24.19874634 47.44544769 -24.203125 46.51171875 C-24.20882507 45.5757637 -24.21452515 44.63980865 -24.22039795 43.67549133 C-24.22984483 41.69423553 -24.23638069 39.71296403 -24.24023438 37.73168945 C-24.24992937 34.70951714 -24.28095138 31.68802803 -24.3125 28.66601562 C-24.31903139 26.73958736 -24.32428132 24.81315425 -24.328125 22.88671875 C-24.3404718 21.98652512 -24.3528186 21.08633148 -24.36553955 20.15885925 C-24.34429312 14.135888 -23.53861248 9.69692239 -19.24609375 5.13671875 C-18.64925781 4.65847656 -18.05242187 4.18023437 -17.4375 3.6875 C-16.83808594 3.19636719 -16.23867187 2.70523437 -15.62109375 2.19921875 C-11.03283209 -1.19498928 -5.4727619 -0.51575767 0 0 Z " fill="#FEC205" transform="translate(165,336)"/>
<path d="M0 0 C1.21734077 -0.00744736 1.21734077 -0.00744736 2.45927429 -0.01504517 C5.15148763 -0.0296828 7.84364203 -0.03647182 10.53588867 -0.04199219 C12.40435285 -0.04774279 14.272817 -0.05350054 16.14128113 -0.05926514 C20.06294022 -0.06978 23.98457879 -0.07561933 27.90625 -0.07910156 C32.93015375 -0.08458407 37.95378618 -0.10860483 42.97760487 -0.13707352 C46.83893118 -0.1557034 50.70019222 -0.16090571 54.56155968 -0.16243744 C56.41351491 -0.16546424 58.26546898 -0.17349372 60.11738014 -0.18662262 C62.70997322 -0.20368875 65.3019047 -0.20180146 67.89453125 -0.1953125 C68.65887482 -0.20452728 69.42321838 -0.21374207 70.21072388 -0.22323608 C75.93960849 -0.17834822 79.13092598 1.15070138 83.14135742 5.16113281 C83.61594239 9.35330005 83.59750528 11.4617061 81.26635742 15.03613281 C77.53326752 18.76922272 74.20689294 18.32083797 69.19091797 18.33813477 C68.36960388 18.34470596 67.54828979 18.35127716 66.7020874 18.35804749 C63.97741612 18.37779781 61.25279999 18.38944682 58.52807617 18.39941406 C57.59838327 18.40348959 56.66869038 18.40756512 55.71082497 18.41176414 C50.79029181 18.43263212 45.86978661 18.44693078 40.94921875 18.45629883 C35.8647023 18.46736581 30.78062319 18.50176693 25.69626141 18.54147053 C21.78861167 18.56760557 17.88106663 18.57598788 13.97333717 18.57958031 C12.09903827 18.5844542 10.22474429 18.59609098 8.35053062 18.6146183 C5.72666061 18.63894419 3.10392853 18.63805693 0.47998047 18.63110352 C-0.29371384 18.64391357 -1.06740814 18.65672363 -1.86454773 18.66992188 C-5.57822666 18.63406592 -7.66336405 18.28682576 -10.81730652 16.25675964 C-13.25036186 13.75899548 -13.78645366 12.81083306 -14.17114258 9.34863281 C-13.786999 5.43036831 -12.56607941 3.94820014 -9.85864258 1.16113281 C-6.74002643 -0.39817526 -3.42386599 0.00496796 0 0 Z " fill="#7A8392" transform="translate(366.858642578125,449.8388671875)"/>
<path d="M0 0 C1.24944901 -0.00569504 1.24944901 -0.00569504 2.5241394 -0.01150513 C5.27559144 -0.01891027 8.02598567 0.00247094 10.77734375 0.02490234 C12.69018428 0.02728691 14.60302719 0.02819206 16.51586914 0.02767944 C20.52407501 0.03080739 24.53192317 0.04737223 28.54003906 0.07421875 C33.67830536 0.10819849 38.81617857 0.1158473 43.95454407 0.11432838 C47.90421299 0.11487221 51.85379595 0.12584136 55.80343628 0.14033127 C57.69806264 0.14669638 59.59269873 0.15063749 61.48733521 0.15211868 C64.13495475 0.15645472 66.78215752 0.17396223 69.4296875 0.1953125 C70.21318573 0.19440613 70.99668396 0.19349976 71.80392456 0.19256592 C78.67425583 0.27358465 78.67425583 0.27358465 81.71484375 2.48583984 C84.20643415 6.22322544 84.1727766 8.05915567 83.71484375 12.48583984 C81.5780509 15.8752354 80.53736705 17.21166541 76.71484375 18.48583984 C74.07950784 18.59225126 71.47022751 18.64308286 68.83447266 18.64697266 C68.03251968 18.65193756 67.23056671 18.65690247 66.40431213 18.66201782 C63.75000146 18.67662885 61.09575054 18.68343944 58.44140625 18.68896484 C56.59679157 18.69471687 54.7521769 18.7004746 52.90756226 18.70623779 C49.03895794 18.71674456 45.17037439 18.72258945 41.30175781 18.72607422 C36.34626254 18.73156034 31.39104184 18.75559225 26.43563271 18.78404617 C22.62492064 18.80267499 18.81427472 18.80787827 15.00352097 18.8094101 C13.17668531 18.81243626 11.34985081 18.82046356 9.52305984 18.83359528 C6.96649557 18.85066205 4.41060214 18.84877419 1.85400391 18.84228516 C0.72387123 18.85610733 0.72387123 18.85610733 -0.42909241 18.87020874 C-4.89794641 18.83470113 -7.71604882 18.21278537 -11.28515625 15.48583984 C-13.3861722 12.81181955 -13.28362601 11.44299299 -13.16015625 7.98583984 C-11.28938886 0.50277027 -7.0454757 -0.10106494 0 0 Z " fill="#7B8392" transform="translate(366.28515625,361.51416015625)"/>
<path d="M0 0 C1.21734077 -0.00744736 1.21734077 -0.00744736 2.45927429 -0.01504517 C5.15148763 -0.0296828 7.84364203 -0.03647182 10.53588867 -0.04199219 C12.40435285 -0.04774279 14.272817 -0.05350054 16.14128113 -0.05926514 C20.06294022 -0.06978 23.98457879 -0.07561933 27.90625 -0.07910156 C32.93015375 -0.08458407 37.95378618 -0.10860483 42.97760487 -0.13707352 C46.83893118 -0.1557034 50.70019222 -0.16090571 54.56155968 -0.16243744 C56.41351491 -0.16546424 58.26546898 -0.17349372 60.11738014 -0.18662262 C62.70997322 -0.20368875 65.3019047 -0.20180146 67.89453125 -0.1953125 C68.65887482 -0.20452728 69.42321838 -0.21374207 70.21072388 -0.22323608 C75.93960849 -0.17834822 79.13092598 1.15070138 83.14135742 5.16113281 C83.61152732 9.31430022 83.5815773 11.46285301 81.32885742 15.03613281 C77.43905706 18.81479602 73.27921352 18.32021616 68.16918945 18.33813477 C67.35748291 18.34470596 66.54577637 18.35127716 65.70947266 18.35804749 C63.02270414 18.37776235 60.33599141 18.38943783 57.64916992 18.39941406 C56.27255503 18.40552735 56.27255503 18.40552735 54.86812973 18.41176414 C50.01243058 18.4326152 45.15675962 18.4469222 40.30102539 18.45629883 C35.28491653 18.46737304 30.26925009 18.50178727 25.25329781 18.54147053 C21.39626231 18.56760408 17.53933289 18.57598766 13.68221664 18.57958031 C11.83303711 18.58445318 9.98386254 18.59608708 8.13476944 18.6146183 C5.54692627 18.6389451 2.96023676 18.63805703 0.37231445 18.63110352 C-0.39045807 18.64391357 -1.15323059 18.65672363 -1.93911743 18.66992188 C-5.63277323 18.63376355 -7.68334948 18.27398561 -10.82009888 16.25456238 C-13.50207027 13.50038144 -13.8063 11.84351754 -14.06958008 8.12988281 C-13.72730419 4.93530783 -12.13240381 3.30496483 -9.85864258 1.16113281 C-6.74002643 -0.39817526 -3.42386599 0.00496796 0 0 Z " fill="#7A8392" transform="translate(366.858642578125,405.8388671875)"/>
<path d="M0 0 C0.84125931 -0.00890762 1.68251862 -0.01781525 2.54927063 -0.0269928 C5.3233554 -0.04826105 8.0951133 -0.02597809 10.86914062 -0.0012207 C12.80058021 -0.00272334 14.73201918 -0.00615389 16.66345215 -0.01142883 C20.70872371 -0.01575943 24.75319786 0.00107123 28.79833984 0.03320312 C33.98058258 0.07298435 39.16133014 0.06368414 44.3436203 0.03896809 C48.33115876 0.02477778 52.31834863 0.03487744 56.30586243 0.0524807 C58.21640693 0.05832611 60.12698717 0.05703462 62.03752136 0.04845619 C64.70941284 0.04045442 67.37912188 0.06473005 70.05078125 0.09765625 C71.23230522 0.08483109 71.23230522 0.08483109 72.43769836 0.07174683 C76.43348083 0.15663593 78.32355522 0.60374071 81.51599121 3.08317566 C83.52539062 5.76049805 83.52539062 5.76049805 84.15039062 9.26049805 C83.34781207 13.75493793 82.11244951 14.97787769 78.52539062 17.76049805 C75.50404761 18.25001847 73.05040877 18.43627388 70.03491211 18.39160156 C69.19204651 18.39875687 68.34918091 18.40591217 67.48077393 18.4132843 C64.70212163 18.43015669 61.92508592 18.41077957 59.14648438 18.3894043 C57.21265021 18.39023305 55.27881612 18.39269269 53.34498596 18.39671326 C49.29561109 18.39957015 45.24678968 18.38487919 41.19750977 18.35742188 C36.00636949 18.32331652 30.81621734 18.32936592 25.62502956 18.34808445 C21.63328306 18.35865043 17.64176668 18.34972065 13.65004158 18.33469963 C11.73587795 18.32951594 9.8216903 18.33000188 7.90752983 18.33624458 C5.23331847 18.34169285 2.56052447 18.32133575 -0.11352539 18.29394531 C-1.30044228 18.30373413 -1.30044228 18.30373413 -2.51133728 18.3137207 C-6.01946646 18.25259681 -8.07558363 18.05656396 -10.93077087 15.93809509 C-13.17031297 12.77920234 -13.5412257 10.62424482 -13.47460938 6.76049805 C-9.82922196 0.8905013 -6.88171505 -0.11983578 0 0 Z " fill="#798291" transform="translate(366.474609375,317.239501953125)"/>
<path d="M0 0 C0.84125931 -0.0087616 1.68251862 -0.01752319 2.54927063 -0.02655029 C5.32308922 -0.04851168 8.09530655 -0.03400365 10.86914062 -0.01708984 C12.80058091 -0.02045893 14.73201912 -0.02531232 16.66345215 -0.03158569 C20.70862033 -0.03895259 24.75323596 -0.02825737 28.79833984 -0.00488281 C33.9805474 0.02360483 39.16146024 0.00719988 44.3436203 -0.02274513 C48.33113337 -0.04082302 52.31834007 -0.03505782 56.30586243 -0.02210617 C58.21641697 -0.01877352 60.12699943 -0.02285429 62.03752136 -0.03450394 C64.70935614 -0.04722086 67.37910189 -0.02782516 70.05078125 0 C71.23230522 -0.01518173 71.23230522 -0.01518173 72.43769836 -0.03067017 C76.43543688 0.04636444 78.32140386 0.4886121 81.51599121 2.96865845 C83.52539062 5.64697266 83.52539062 5.64697266 84.15039062 9.14697266 C83.34788525 13.64100278 82.11037175 14.8626639 78.52539062 17.64697266 C75.51115013 18.14667236 73.06117211 18.34249154 70.05078125 18.30981445 C68.78889229 18.32536629 68.78889229 18.32536629 67.50151062 18.3412323 C64.72772079 18.36828087 61.95551437 18.35864629 59.18164062 18.34619141 C57.25019897 18.35210076 55.31876098 18.35934766 53.3873291 18.36787415 C49.3421722 18.3797508 45.29756565 18.3730523 41.25244141 18.35375977 C36.07008107 18.33086723 30.88935965 18.35765792 25.70716095 18.39882183 C21.71963367 18.42440307 17.73249841 18.42181921 13.74491882 18.41092873 C11.8343507 18.40944233 9.9237525 18.41712872 8.01325989 18.43417931 C5.34116334 18.4541569 2.67196322 18.43576262 0 18.4074707 C-0.78768265 18.42118713 -1.5753653 18.43490356 -2.38691711 18.44903564 C-5.32508868 18.38689823 -7.73105044 18.23696343 -10.08622742 16.36820412 C-12.28899916 13.84855223 -13.42897115 11.87059996 -14.09960938 8.58447266 C-12.48164124 0.98002242 -6.86460711 -0.08820526 0 0 Z " fill="#798291" transform="translate(366.474609375,273.35302734375)"/>
</svg>
