<?xml version="1.0" encoding="UTF-8"?>
<svg version="1.1" xmlns="http://www.w3.org/2000/svg" width="596" height="497">
<path d="M0 0 C0.79744629 0.38913574 1.59489258 0.77827148 2.41650391 1.17919922 C19.51304305 9.61515071 35.17360799 20.04384542 50 32 C50.98484375 32.77988281 51.9696875 33.55976562 52.984375 34.36328125 C67.22043844 45.97976449 81.02119133 59.23242598 92 74 C92.87224752 75.14334233 93.74465461 76.28656293 94.6171875 77.4296875 C131 125.58640003 131 125.58640003 131 144 C131.89195068 143.97905273 132.78390137 143.95810547 133.70288086 143.93652344 C137.05210968 143.86783914 140.40057668 143.81795673 143.75024414 143.78027344 C145.19242252 143.76031249 146.6345216 143.73313337 148.07641602 143.69824219 C165.87883193 143.27863585 165.87883193 143.27863585 172.83569336 149.69238281 C180.35971328 157.61139887 180.42728417 165.66708235 180.34057617 176.10522461 C180.33972904 177.5348102 180.34020672 178.9643971 180.34190369 180.39398193 C180.34276173 184.2592621 180.32516721 188.12426096 180.30418181 191.98947597 C180.28538296 196.03468178 180.28366205 200.07989458 180.28010559 204.12513733 C180.27079453 211.7783567 180.24619352 219.43144696 180.21605712 227.08460957 C180.18248383 235.80042822 180.16601975 244.51625314 180.15097082 253.23212039 C180.11964305 271.15483492 180.06464279 289.07737254 180 307 C166.8 307 153.6 307 140 307 C139.34 310.3 138.68 313.6 138 317 C127.27007885 354.72475106 106.34812352 388.92724968 80.0546875 417.72265625 C78.29434202 419.6737616 76.60815677 421.66013544 74.9375 423.6875 C71.69206498 427.4949936 68.1035335 431.12140187 64 434 C60.45411042 434 60.22158919 433.58798977 57.75 431.25 C53.68029847 427.55303749 49.46997436 424.07026806 45.1875 420.625 C44.52911133 420.08907227 43.87072266 419.55314453 43.19238281 419.00097656 C42.56557617 418.49791992 41.93876953 417.99486328 41.29296875 417.4765625 C40.7311792 417.02361816 40.16938965 416.57067383 39.59057617 416.10400391 C37.87316372 414.80152355 37.87316372 414.80152355 35 414 C32.62490205 415.69606353 30.45945872 417.4194423 28.25 419.3125 C-18.94762665 458.33172465 -80.08418337 474.45313047 -140.62890625 469.53125 C-186.29733463 464.92568948 -229.92014061 446.46392803 -264.79296875 416.71484375 C-266.97426532 414.82393505 -266.97426532 414.82393505 -270 414 C-272.130985 415.33684814 -273.99060218 416.67815578 -275.9375 418.25 C-276.50364014 418.69585449 -277.06978027 419.14170898 -277.65307617 419.60107422 C-283.70487297 424.43546395 -289.38096361 429.67457092 -295 435 C-298.28673738 433.5609916 -300.47727154 431.77989422 -303.01171875 429.25390625 C-303.76509521 428.50471924 -304.51847168 427.75553223 -305.29467773 426.98364258 C-306.08430908 426.18466553 -306.87394043 425.38568848 -307.6875 424.5625 C-308.90578491 423.33406372 -308.90578491 423.33406372 -310.14868164 422.08081055 C-315.82640142 416.30495312 -321.13185484 410.48158756 -326 404 C-326.4017041 403.48002441 -326.8034082 402.96004883 -327.21728516 402.42431641 C-348.84188151 374.42666691 -365.34439003 342.38032493 -374 308 C-374.61931396 307.98541748 -375.23862793 307.97083496 -375.87670898 307.95581055 C-378.73087773 307.88052583 -381.58397749 307.78413686 -384.4375 307.6875 C-385.41138672 307.66494141 -386.38527344 307.64238281 -387.38867188 307.61914062 C-395.3594865 307.32589995 -403.59034012 306.32272822 -409.66335011 300.60738945 C-416.25068607 292.68578307 -416.70613466 284.4754534 -416.56762695 274.55419922 C-416.5662138 273.12417145 -416.56701367 271.69414006 -416.56983948 270.26411438 C-416.57126465 266.41119946 -416.54202271 262.5590747 -416.50696969 258.70634222 C-416.47555464 254.66918874 -416.47276359 250.63201393 -416.46684265 246.59475708 C-416.45134843 238.96277587 -416.41038049 231.33115596 -416.3600952 223.69933331 C-416.30406337 215.00524306 -416.27668058 206.31113487 -416.25161803 197.61690879 C-416.19946006 179.74435987 -416.10782438 161.87230576 -416 144 C-390.755 143.505 -390.755 143.505 -365 143 C-362.03 136.07 -359.06 129.14 -356 122 C-354.09745504 118.15437967 -352.21474676 114.41739033 -350.125 110.6875 C-349.62307129 109.7807251 -349.12114258 108.8739502 -348.60400391 107.93969727 C-343.90744923 99.59149401 -338.68787424 91.70092736 -333 84 C-332.56945312 83.41395996 -332.13890625 82.82791992 -331.6953125 82.22412109 C-326.80585844 75.61039365 -321.65073985 69.31120888 -316.07421875 63.2578125 C-314.20979587 61.22836537 -312.41225446 59.15965844 -310.625 57.0625 C-302.82775869 48.15136707 -294.32629957 40.28105843 -285 33 C-284.09169434 32.27707764 -284.09169434 32.27707764 -283.16503906 31.53955078 C-206.6266305 -29.34586149 -99.58517944 -44.83774967 0 0 Z " fill="#D02030" transform="translate(416,27)"/>
<path d="M0 0 C169.62 0 339.24 0 514 0 C513.07081154 6.50431923 511.57298436 12.01295744 509.5 18.1875 C509.14542725 19.24396729 508.79085449 20.30043457 508.42553711 21.38891602 C504.9256673 31.57793591 500.72914563 41.32712273 496 51 C495.65388672 51.71671875 495.30777344 52.4334375 494.95117188 53.171875 C484.36077989 74.87514511 470.03035853 94.72296228 453.5078125 112.28125 C451.74499586 114.19234093 450.07893749 116.09354776 448.4375 118.1015625 C446.35675867 120.57577735 444.29344292 122.74107977 441.875 124.875 C441.21242188 125.47054687 440.54984375 126.06609375 439.8671875 126.6796875 C438 128 438 128 435 128 C433.484375 126.890625 433.484375 126.890625 431.75 125.25 C427.68029847 121.55303749 423.46997436 118.07026806 419.1875 114.625 C418.52911133 114.08907227 417.87072266 113.55314453 417.19238281 113.00097656 C416.56557617 112.49791992 415.93876953 111.99486328 415.29296875 111.4765625 C414.7311792 111.02361816 414.16938965 110.57067383 413.59057617 110.10400391 C411.87316372 108.80152355 411.87316372 108.80152355 409 108 C406.62490205 109.69606353 404.45945872 111.4194423 402.25 113.3125 C355.05237335 152.33172465 293.91581663 168.45313047 233.37109375 163.53125 C187.70266537 158.92568948 144.07985939 140.46392803 109.20703125 110.71484375 C107.02573468 108.82393505 107.02573468 108.82393505 104 108 C101.869015 109.33684814 100.00939782 110.67815578 98.0625 112.25 C97.49635986 112.69585449 96.93021973 113.14170898 96.34692383 113.60107422 C90.29512703 118.43546395 84.61903639 123.67457092 79 129 C75.71326262 127.5609916 73.52272846 125.77989422 70.98828125 123.25390625 C70.23490479 122.50471924 69.48152832 121.75553223 68.70532227 120.98364258 C67.91569092 120.18466553 67.12605957 119.38568848 66.3125 118.5625 C65.50031006 117.74354248 64.68812012 116.92458496 63.85131836 116.08081055 C58.17359858 110.30495312 52.86814516 104.48158756 48 98 C47.5982959 97.48002441 47.1965918 96.96004883 46.78271484 96.42431641 C30.59081073 75.46044505 17.4844141 52.38212224 8.0625 27.625 C7.70897461 26.69969482 7.35544922 25.77438965 6.99121094 24.82104492 C3.98034273 16.59744874 2.15856906 8.63427624 0 0 Z " fill="#6D777F" transform="translate(42,333)"/>
<path d="M0 0 C1.88489136 0.00906372 1.88489136 0.00906372 3.80786133 0.01831055 C12.82900034 0.11400247 21.66793748 0.5940522 30.58740234 1.94677734 C32.65537933 2.25452086 34.72580138 2.51371181 36.80078125 2.76953125 C89.35155565 9.79705251 141.5993581 40.72318939 174.35546875 82.23046875 C201.625 118.5116179 201.625 118.5116179 201.625 127.25 C69.625 127.25 -62.375 127.25 -198.375 127.25 C-190.12061269 107.98976295 -178.27922304 90.85324281 -164.375 75.25 C-163.92656738 74.73985352 -163.47813477 74.22970703 -163.01611328 73.70410156 C-140.41968012 48.04002155 -111.30680884 27.58480159 -79.375 15.25 C-78.21613281 14.77304687 -77.05726563 14.29609375 -75.86328125 13.8046875 C-66.27393137 10.01889467 -56.35654392 7.71226304 -46.3125 5.5 C-45.64430237 5.35120392 -44.97610474 5.20240784 -44.28765869 5.04910278 C-29.56568183 1.7982949 -15.12075503 -0.11886573 0 0 Z " fill="#FEFDFD" transform="translate(297.375,43.75)"/>
<path d="M0 0 C139.26 0 278.52 0 422 0 C420.57978009 6.39098958 419.10608553 11.84080104 416.5625 17.75 C416.21541992 18.56001465 415.86833984 19.3700293 415.51074219 20.20458984 C408.33481782 36.61881054 399.84294689 51.73631418 389 66 C388.29101562 66.94101562 387.58203125 67.88203125 386.8515625 68.8515625 C382.38491044 74.59440086 377.52048144 79.97309412 372.546875 85.27734375 C371.05448231 86.87273901 369.57770415 88.48351101 368.140625 90.12890625 C366.625 91.8125 366.625 91.8125 364 94 C359.18970101 93.82152601 355.63680003 91.07003372 351.75 88.5 C333.3241529 76.70008158 313.18138994 66.76480653 292.12548828 60.62548828 C290.59830399 60.17606878 289.07634806 59.70873843 287.55810547 59.22998047 C269.38406338 53.56625527 251.85789206 53.02311016 233 53 C233 43.76 233 34.52 233 25 C225.15663938 25.0466589 217.31489772 25.09705846 209.47213745 25.18379211 C205.81962202 25.22310372 202.16734922 25.25551551 198.51464844 25.27099609 C194.99356924 25.28618879 191.47315041 25.32067882 187.95236588 25.36830902 C185.96174418 25.39027132 183.97093606 25.39247149 181.98019409 25.39434814 C173.16510606 25.45957542 173.16510606 25.45957542 166 30 C161.83509737 34.82178325 161.36381842 38.77019391 161.25 44.875 C161.22035156 45.65875 161.19070312 46.4425 161.16015625 47.25 C161.090054 49.16612807 161.04269342 51.08306537 161 53 C160.2565332 53.17539307 159.51306641 53.35078613 158.74707031 53.53149414 C126.40146906 61.22416526 94.61619499 71.61365196 66.84033203 90.46582031 C66.14149902 90.93342773 65.44266602 91.40103516 64.72265625 91.8828125 C64.10269775 92.31223145 63.48273926 92.74165039 62.84399414 93.18408203 C61 94 61 94 58.89501953 93.73730469 C51.6852374 90.93215885 45.91671365 81.65528344 41.23828125 75.7890625 C39.80895515 74.00801742 38.35038043 72.24980181 36.85546875 70.5234375 C22.67362435 54.01628168 0 22.5605624 0 0 Z " fill="#FEFDFD" transform="translate(88,333)"/>
<path d="M0 0 C10.0913951 9.10546339 19.46592651 18.50951323 27.87109375 29.2109375 C28.66257812 30.19707031 29.4540625 31.18320313 30.26953125 32.19921875 C65.87109375 77.29078766 65.87109375 77.29078766 65.87109375 95.2109375 C56.63109375 95.2109375 47.39109375 95.2109375 37.87109375 95.2109375 C36.09734375 91.7253125 34.32359375 88.2396875 32.49609375 84.6484375 C27.52829367 75.04884667 22.24566007 65.93871967 15.87109375 57.2109375 C15.45617676 56.64197754 15.04125977 56.07301758 14.61376953 55.48681641 C9.72395311 48.84486277 4.53816766 42.53353327 -1.05859375 36.46875 C-2.91319491 34.44618496 -4.67925786 32.37609766 -6.44140625 30.2734375 C-36.32137654 -3.75841932 -83.80684278 -28.16766366 -128.12890625 -35.7890625 C-128.8470752 -35.92441406 -129.56524414 -36.05976562 -130.30517578 -36.19921875 C-188.32345107 -46.86372474 -250.53741713 -34.48350944 -299.37109375 -1.40625 C-320.88777945 13.47820817 -340.74875833 30.92939785 -356.12890625 52.2109375 C-356.90492188 53.27699219 -357.6809375 54.34304687 -358.48046875 55.44140625 C-367.45242736 68.09772586 -374.94007743 81.48680975 -382.12890625 95.2109375 C-391.36890625 95.2109375 -400.60890625 95.2109375 -410.12890625 95.2109375 C-407.05485125 87.21839449 -404.15469235 79.70981159 -400.19140625 72.2109375 C-399.72613525 71.32792969 -399.26086426 70.44492188 -398.78149414 69.53515625 C-388.70521181 50.84023978 -376.17743741 33.38557367 -361.64453125 17.9140625 C-359.58849134 15.70477738 -357.62790353 13.46095367 -355.69140625 11.1484375 C-316.95873329 -33.26136483 -253.01790844 -61.45289296 -195.06152344 -65.578125 C-122.50748945 -69.4697742 -54.63344895 -48.86363626 0 0 Z " fill="#FDFDFD" transform="translate(471.12890625,75.7890625)"/>
<path d="M0 0 C0 11.88 0 23.76 0 36 C8.91 36 17.82 36 27 36 C27 45.24 27 54.48 27 64 C34.67860452 63.95329316 42.35557248 63.90278713 50.03356934 63.81620789 C53.60963815 63.77695675 57.18546147 63.74451623 60.76171875 63.72900391 C64.21148889 63.7137702 67.66059053 63.67920863 71.11006165 63.63169098 C73.05516362 63.60980909 75.00045457 63.60753204 76.94567871 63.60565186 C85.48597282 63.46539103 91.34247972 62.69741787 97.46191406 56.51123047 C99.74092163 51.30858176 99.6032517 46.44375987 99.609375 40.8203125 C99.62591125 39.6524118 99.64244751 38.48451111 99.65948486 37.28121948 C99.70794853 33.56242606 99.72933332 29.84404157 99.75 26.125 C99.77816087 23.59893778 99.80808845 21.07289459 99.83984375 18.546875 C99.91370735 12.36465752 99.96535955 6.18255498 100 0 C101.88135549 0.30012912 103.76209556 0.60411719 105.64257812 0.90966797 C106.68998169 1.07852509 107.73738525 1.2473822 108.81652832 1.4213562 C113.80888181 2.32879144 118.63868284 3.6848049 123.5 5.125 C124.53390869 5.42994385 125.56781738 5.7348877 126.63305664 6.04907227 C136.68832983 9.08979181 146.3735532 12.80879632 156 17 C156.72203613 17.31018066 157.44407227 17.62036133 158.18798828 17.93994141 C167.12977517 21.81902354 175.64398202 26.34019153 184.0625 31.25 C184.95066406 31.75756836 185.83882813 32.26513672 186.75390625 32.78808594 C187.9759375 33.51946777 187.9759375 33.51946777 189.22265625 34.265625 C189.95234619 34.69649414 190.68203613 35.12736328 191.43383789 35.57128906 C192.20908813 36.27850098 192.20908813 36.27850098 193 37 C193 38.32 193 39.64 193 41 C190.92203579 43.06263999 188.93309566 44.79027393 186.625 46.5625 C185.61711426 47.34923096 185.61711426 47.34923096 184.58886719 48.15185547 C176.79631043 54.10445333 168.51680076 59.16086798 160 64 C159.24734863 64.43054688 158.49469727 64.86109375 157.71923828 65.3046875 C107.44209425 93.75734779 47.58240476 100.70695931 -8.04296875 85.7265625 C-40.31102401 76.61224293 -68.01472418 60.93670795 -94 40 C-92.84655517 36.53966552 -92.34155954 36.31753606 -89.30859375 34.58203125 C-88.53757324 34.13657959 -87.76655273 33.69112793 -86.97216797 33.23217773 C-86.13572754 32.76368408 -85.29928711 32.29519043 -84.4375 31.8125 C-83.5727002 31.32273682 -82.70790039 30.83297363 -81.81689453 30.32836914 C-79.21981105 28.86944879 -76.61311428 27.42998118 -74 26 C-73.31921387 25.62649414 -72.63842773 25.25298828 -71.93701172 24.86816406 C-51.66161238 13.89509897 -23.61247908 0 0 0 Z " fill="#FEFEFE" transform="translate(249,395)"/>
<path d="M0 0 C0.79744629 0.38913574 1.59489258 0.77827148 2.41650391 1.17919922 C19.51304305 9.61515071 35.17360799 20.04384542 50 32 C50.98484375 32.77988281 51.9696875 33.55976562 52.984375 34.36328125 C67.22043844 45.97976449 81.02119133 59.23242598 92 74 C92.87224752 75.14334233 93.74465461 76.28656293 94.6171875 77.4296875 C131 125.58640003 131 125.58640003 131 144 C127.7 144 124.4 144 121 144 C120.71914551 143.36199463 120.43829102 142.72398926 120.14892578 142.06665039 C109.74186096 118.55681653 97.61494895 96.73783169 81 77 C80.57138672 76.48260254 80.14277344 75.96520508 79.70117188 75.43212891 C69.16964007 62.72910949 58.01104747 51.1910948 45 41 C43.95541935 40.14389007 42.91251786 39.28572821 41.87109375 38.42578125 C-2.27218901 2.31446708 -59.66313553 -16.59085559 -116.4375 -16.3125 C-117.25804871 -16.31001251 -118.07859741 -16.30752502 -118.92401123 -16.30496216 C-172.37523521 -16.05640887 -223.78086898 0.31684625 -267 32 C-267.57830566 32.4213623 -268.15661133 32.84272461 -268.75244141 33.27685547 C-275.94005955 38.54969708 -282.65281569 44.23595516 -289.1484375 50.3359375 C-291.82764019 52.83897344 -294.55906463 55.26680606 -297.3125 57.6875 C-301.58395935 61.53113432 -305.33196745 65.5857938 -309 70 C-310.10408203 71.27230469 -310.10408203 71.27230469 -311.23046875 72.5703125 C-329.52790777 93.92217298 -343.62726682 118.35560165 -355 144 C-358.3 144 -361.6 144 -365 144 C-355.15488473 116.78393616 -340.60600158 92.16811712 -322 70 C-321.5781543 69.48937012 -321.15630859 68.97874023 -320.72167969 68.45263672 C-309.94029998 55.4184881 -298.40737471 43.36419627 -285 33 C-283.73528809 31.99528113 -282.4709947 30.99003529 -281.20703125 29.984375 C-204.50927674 -30.47054182 -96.34299951 -44.63043918 0 0 Z " fill="#6B767E" transform="translate(416,27)"/>
<path d="M0 0 C0.8831488 -0.00012085 1.76629761 -0.0002417 2.6762085 -0.00036621 C23.52428197 0.03995616 44.1082125 1.97175849 64.0625 8.375 C64.81950195 8.60525879 65.57650391 8.83551758 66.35644531 9.07275391 C99.14898134 19.05169589 128.51436593 35.53819327 154.0625 58.375 C154.61421875 58.86500488 155.1659375 59.35500977 155.734375 59.85986328 C178.27618775 79.9652473 197.90670481 105.55439683 210.0625 133.375 C210.0625 134.035 210.0625 134.695 210.0625 135.375 C206.7625 135.375 203.4625 135.375 200.0625 135.375 C199.4334375 134.14265625 198.804375 132.9103125 198.15625 131.640625 C193.27197111 122.15903901 188.31090138 113.03895695 182.0625 104.375 C181.37800781 103.41722656 180.69351562 102.45945312 179.98828125 101.47265625 C148.84902812 58.92872154 106.50360232 31.0522712 56.0625 16.375 C54.94617188 16.04757813 53.82984375 15.72015625 52.6796875 15.3828125 C46.71206238 13.77039011 40.65838841 12.74023141 34.5625 11.75 C33.80300049 11.62657227 33.04350098 11.50314453 32.26098633 11.37597656 C-14.53186525 4.17937653 -62.31513754 13.21966675 -103.9375 35.375 C-104.93007812 35.88804688 -105.92265625 36.40109375 -106.9453125 36.9296875 C-121.79633263 44.75714825 -135.36215988 54.93770864 -147.6796875 66.3046875 C-149.70225254 68.15928866 -151.77233984 69.92535161 -153.875 71.6875 C-173.43582885 88.80814497 -188.39371406 112.28742813 -199.9375 135.375 C-203.2375 135.375 -206.5375 135.375 -209.9375 135.375 C-202.19023486 117.9484357 -192.80501886 102.31626731 -180.9375 87.375 C-180.15503906 86.38757813 -179.37257813 85.40015625 -178.56640625 84.3828125 C-166.72947687 69.78492911 -153.21754587 56.33805386 -137.9375 45.375 C-137.31166016 44.9207666 -136.68582031 44.4665332 -136.04101562 43.99853516 C-126.40891611 37.04760961 -116.47635325 30.85361433 -105.9375 25.375 C-105.15810059 24.96894531 -104.37870117 24.56289063 -103.57568359 24.14453125 C-86.36084961 15.2972159 -68.45990447 8.94135233 -49.625 4.5 C-48.82779541 4.30881592 -48.03059082 4.11763184 -47.20922852 3.9206543 C-31.71951757 0.51678066 -15.8011944 -0.033649 0 0 Z " fill="#6D7880" transform="translate(298.9375,35.625)"/>
<path d="M0 0 C8.91 0 17.82 0 27 0 C27.66 2.10375 28.32 4.2075 29 6.375 C35.64613297 26.64379511 45.51526969 46.6983265 58 64 C58.69609375 64.969375 59.3921875 65.93875 60.109375 66.9375 C68.03052258 77.72374351 76.49555103 87.85347073 86.19921875 97.07421875 C88 99 88 99 88 101 C86.38260845 102.29331861 84.70326111 103.50956534 83 104.6875 C78.05141192 108.18928225 73.4656308 111.90543881 69 116 C60.04597973 112.02702412 53.92900937 102.44505899 48 95 C47.16726562 93.99582031 46.33453125 92.99164063 45.4765625 91.95703125 C27.02420097 69.49358463 0 30.49919059 0 0 Z " fill="#FDFDFD" transform="translate(52,333)"/>
<path d="M0 0 C1.12591553 0.00523682 2.25183105 0.01047363 3.41186523 0.01586914 C4.62680664 0.0190918 5.84174805 0.02231445 7.09350586 0.02563477 C8.37290039 0.03401367 9.65229492 0.04239258 10.97045898 0.05102539 C12.2537207 0.05553711 13.53698242 0.06004883 14.85913086 0.06469727 C18.04211921 0.07652994 21.22501661 0.09301471 24.40795898 0.11352539 C14.62010836 37.74387339 -3.84028317 72.04145094 -29.59204102 101.11352539 C-30.4209082 102.05325195 -31.24977539 102.99297852 -32.10375977 103.96118164 C-35.82079575 108.13286335 -39.57649698 112.22751503 -43.59204102 116.11352539 C-47.45800546 114.46863187 -50.43597475 111.88289905 -53.59204102 109.17602539 C-56.86090459 106.39668222 -60.1214987 103.64134828 -63.59204102 101.11352539 C-62.27472524 98.16706547 -60.89243411 96.23516535 -58.52954102 94.05102539 C-53.77266368 89.43231461 -49.7318175 84.28105888 -45.59204102 79.11352539 C-44.93204102 78.32075195 -44.27204102 77.52797852 -43.59204102 76.71118164 C-26.07096002 55.48100083 -12.59159862 30.05306752 -4.46704102 3.78930664 C-3.27481248 0.1434292 -3.27481248 0.1434292 0 0 Z " fill="#FDFDFD" transform="translate(522.592041015625,332.886474609375)"/>
<path d="M0 0 C13 0 13 0 15.96484375 2.2109375 C16.61582031 3.25507813 17.26679687 4.29921875 17.9375 5.375 C18.7378728 6.5762315 19.54144752 7.77533373 20.34765625 8.97265625 C20.7667627 9.62250488 21.18586914 10.27235352 21.61767578 10.94189453 C24.15854511 14.72492676 27.04369748 18.24491118 29.875 21.8125 C36.38988237 30.10633561 42.66944399 38.55925865 49 47 C49.33 31.49 49.66 15.98 50 0 C54.29 0 58.58 0 63 0 C63 23.76 63 47.52 63 72 C52 72 52 72 48.65234375 69.17578125 C47.71180658 67.91377988 46.8079197 66.62384555 45.9375 65.3125 C45.43911621 64.62841064 44.94073242 63.94432129 44.42724609 63.23950195 C43.40849657 61.83924874 42.40343285 60.42893176 41.41259766 59.00878906 C39.40844517 56.15877755 37.27022134 53.43310243 35.125 50.6875 C34.33351562 49.65238281 33.54203125 48.61726563 32.7265625 47.55078125 C28.73649705 42.339422 24.68791372 37.17309919 20.64501953 32.00268555 C20.07122559 31.26703369 19.49743164 30.53138184 18.90625 29.7734375 C18.39384766 29.11778809 17.88144531 28.46213867 17.35351562 27.78662109 C16.17709844 26.23376738 15.08064255 24.62096383 14 23 C13.67 39.17 13.34 55.34 13 72 C8.71 72 4.42 72 0 72 C0 48.24 0 24.48 0 0 Z " fill="#FDF8F9" transform="translate(77,212)"/>
<path d="M0 0 C5.18350351 2.98913025 8.46098591 6.30589769 11.375 11.5 C12.303125 13.0778125 12.303125 13.0778125 13.25 14.6875 C15.6706685 22.89087657 15.3841509 31.41694824 11.7578125 39.21484375 C7.81026127 45.73833943 2.51699499 50.38350943 -4.72265625 52.87109375 C-13.52100153 54.77759925 -22.50972803 54.83863546 -30.40625 50.1796875 C-36.69502007 45.41882284 -42.18845138 39.44983218 -43.625 31.5 C-44.71954625 21.38583841 -42.77415353 14.20022764 -36.5 6.25 C-26.7861607 -3.975094 -12.65311485 -5.74426234 0 0 Z " fill="#FDF9FA" transform="translate(375.625,231.5)"/>
<path d="M0 0 C4.29 0 8.58 0 13 0 C15.55290102 7.47635298 17.88863093 14.95756889 19.97265625 22.578125 C21.14095106 26.46947958 22.5391906 30.20934444 24 34 C24.31453125 32.90042969 24.6290625 31.80085938 24.953125 30.66796875 C27.36047379 22.32495038 29.93722397 14.12976494 33 6 C33.67681023 4.00340982 34.34961499 2.00535378 35 0 C38.96 0 42.92 0 47 0 C47.30292969 1.06476563 47.60585938 2.12953125 47.91796875 3.2265625 C50.35360996 11.69298856 52.97252038 19.99480791 56.08203125 28.2421875 C57 31 57 31 57 34 C57.66 34 58.32 34 59 34 C59.08636719 33.45214844 59.17273438 32.90429688 59.26171875 32.33984375 C60.69013209 24.28044739 63.32965539 16.70873068 66 9 C66.60703379 7.18845823 67.21176718 5.376141 67.8125 3.5625 C68.204375 2.386875 68.59625 1.21125 69 0 C72.96 0 76.92 0 81 0 C79.55140767 7.08854316 77.55445479 13.87463625 75.3125 20.75 C74.96380859 21.82950928 74.61511719 22.90901855 74.25585938 24.02124023 C70.90367111 34.36953028 67.46906354 44.69037678 64 55 C60.37 55 56.74 55 53 55 C49.84583125 47.39873747 47.21441632 39.72462234 44.75 31.875 C44.38648438 30.72773438 44.02296875 29.58046875 43.6484375 28.3984375 C42.76226575 25.60000039 41.87952682 22.80053118 41 20 C37.90552344 27.43632288 35.26012788 34.97375834 32.75 42.625 C32.38648438 43.72457031 32.02296875 44.82414062 31.6484375 45.95703125 C30.76284798 48.6371048 29.8810283 51.31842356 29 54 C25.04 54 21.08 54 17 54 C15.38051927 49.16669902 13.76320543 44.33267973 12.14770508 39.49804688 C11.60041629 37.86113986 11.05258457 36.22441424 10.50415039 34.58789062 C7.64552943 26.05657088 4.81277956 17.51823124 2.10546875 8.9375 C1.89134842 8.26452881 1.67722809 7.59155762 1.45661926 6.89819336 C0 2.23822794 0 2.23822794 0 0 Z " fill="#FEFAFA" transform="translate(248,230)"/>
<path d="M0 0 C5.49498344 4.89770263 9.31046616 9.81948118 11 17 C11 21.29 11 25.58 11 30 C-1.87 30 -14.74 30 -28 30 C-24.47422008 37.99940352 -24.47422008 37.99940352 -18 42 C-12.44773252 42.97816793 -8.3499784 42.59336244 -3.625 39.4375 C-3.01914063 38.96183594 -2.41328125 38.48617187 -1.7890625 37.99609375 C0 37 0 37 2.0546875 37.21875 C4.79497994 38.31926905 6.77698992 40.08574132 9 42 C7.55366256 45.60411654 5.80863332 47.11402568 2.5625 49.1875 C1.78003906 49.69667969 0.99757812 50.20585937 0.19140625 50.73046875 C-3.99437292 53.15538538 -7.48675148 53.16377864 -12.25 53.1875 C-14.17585938 53.20876953 -14.17585938 53.20876953 -16.140625 53.23046875 C-24.35705402 52.73981155 -28.92493479 50.12848718 -34.75390625 44.5390625 C-41.04686897 37.42527856 -41.65250176 29.83497286 -41.390625 20.56640625 C-40.63957311 13.7093025 -37.89797754 7.89797754 -33 3 C-23.89090359 -3.62479739 -10.07193842 -6.74307742 0 0 Z " fill="#FDF8F9" transform="translate(193,232)"/>
<path d="M0 0 C4.29 0 8.58 0 13 0 C13 14.19 13 28.38 13 43 C15.475 40.525 15.475 40.525 18 38 C18.98992299 37.01986034 19.98063913 36.04052009 20.97265625 35.0625 C22.00262733 34.04169004 23.03257501 33.02085647 24.0625 32 C24.57876953 31.49210937 25.09503906 30.98421875 25.62695312 30.4609375 C26.13291016 29.95820313 26.63886719 29.45546875 27.16015625 28.9375 C27.65435059 28.44854248 28.14854492 27.95958496 28.65771484 27.45581055 C30.20490349 25.85947276 30.20490349 25.85947276 31.85546875 23.14453125 C34 21 34 21 37.890625 20.51171875 C39.3445554 20.54476262 40.79808575 20.60413037 42.25 20.6875 C42.99507813 20.71005859 43.74015625 20.73261719 44.5078125 20.75585938 C46.339409 20.81456439 48.16996653 20.90424243 50 21 C45.76183463 26.06623768 41.32591037 30.80038069 36.625 35.4375 C35.66400391 36.39172852 35.66400391 36.39172852 34.68359375 37.36523438 C33.12469121 38.91250332 31.56348584 40.45736492 30 42 C31.49087169 46.36670614 33.84563882 49.8237311 36.5625 53.5 C37.45781648 54.73250289 38.35232812 55.96559078 39.24609375 57.19921875 C39.92841064 58.13773682 39.92841064 58.13773682 40.62451172 59.09521484 C42.82589107 62.14369935 44.98006561 65.22414148 47.125 68.3125 C47.87007813 69.38113281 48.61515625 70.44976562 49.3828125 71.55078125 C51 74 51 74 51 75 C45.89464897 76.14393757 40.95222795 76.97833249 36 75 C29.20844306 69.14011841 24.15289015 60.31548526 21 52 C20.34 52 19.68 52 19 52 C18.5978125 52.8971875 18.5978125 52.8971875 18.1875 53.8125 C17 56 17 56 15.46875 57.125 C13.12810731 60.1130545 13.42415831 63.53467802 13.3125 67.1875 C13.27833984 67.93708984 13.24417969 68.68667969 13.20898438 69.45898438 C13.12665706 71.30546838 13.06164719 73.15270994 13 75 C8.71 75 4.42 75 0 75 C0 50.25 0 25.5 0 0 Z " fill="#FDF8F9" transform="translate(438,209)"/>
<path d="M0 0 C5.94 0 11.88 0 18 0 C18.09882502 7.1899005 18.17144928 14.37940628 18.21972656 21.56982422 C18.23985052 24.01618333 18.2671526 26.46249429 18.30175781 28.90869141 C18.35023963 32.42362341 18.37296128 35.93791984 18.390625 39.453125 C18.41127014 40.5480426 18.43191528 41.64296021 18.45318604 42.77105713 C18.45348816 43.79181335 18.45379028 44.81256958 18.45410156 45.86425781 C18.46298401 46.76138489 18.47186646 47.65851196 18.48101807 48.58282471 C17.82899581 51.85931719 16.657893 53.02055538 14 55 C11.58282471 55.48101807 11.58282471 55.48101807 8.86425781 55.45410156 C7.33312347 55.45364838 7.33312347 55.45364838 5.77105713 55.45318604 C4.67613953 55.43254089 3.58122192 55.41189575 2.453125 55.390625 C1.3267865 55.38496521 0.200448 55.37930542 -0.96002197 55.37347412 C-4.55711382 55.35108545 -8.15320926 55.30088213 -11.75 55.25 C-14.1887877 55.22993833 -16.62759101 55.21168698 -19.06640625 55.1953125 C-25.0446547 55.15121211 -31.02215842 55.0821653 -37 55 C-37 48.73 -37 42.46 -37 36 C-24.79 36 -12.58 36 0 36 C0 24.12 0 12.24 0 0 Z " fill="#FDFDFD" transform="translate(322,395)"/>
<path d="M0 0 C1.53113434 0.00045319 1.53113434 0.00045319 3.09320068 0.00091553 C4.18811829 0.02156067 5.28303589 0.04220581 6.41113281 0.06347656 C7.53747131 0.06913635 8.66380981 0.07479614 9.82427979 0.08062744 C13.42137164 0.10301611 17.01746707 0.15321943 20.61425781 0.20410156 C23.05304551 0.22416324 25.49184882 0.24241458 27.93066406 0.25878906 C33.90891251 0.30288945 39.88641623 0.37193626 45.86425781 0.45410156 C45.86425781 6.72410156 45.86425781 12.99410156 45.86425781 19.45410156 C33.65425781 19.45410156 21.44425781 19.45410156 8.86425781 19.45410156 C8.86425781 31.33410156 8.86425781 43.21410156 8.86425781 55.45410156 C2.92425781 55.45410156 -3.01574219 55.45410156 -9.13574219 55.45410156 C-9.23456721 48.26420106 -9.30719147 41.07469528 -9.35546875 33.88427734 C-9.37559271 31.43791824 -9.40289478 28.99160727 -9.4375 26.54541016 C-9.48598182 23.03047815 -9.50870347 19.51618172 -9.52636719 16.00097656 C-9.54701233 14.90605896 -9.56765747 13.81114136 -9.58892822 12.68304443 C-9.58923035 11.66228821 -9.58953247 10.64153198 -9.58984375 9.58984375 C-9.5987262 8.69271667 -9.60760864 7.7955896 -9.61676025 6.87127686 C-8.54765019 1.49886652 -5.11426275 -0.05063626 0 0 Z " fill="#FDFDFD" transform="translate(267.1357421875,366.5458984375)"/>
<path d="M0 0 C4.29 0 8.58 0 13 0 C13 4.95 13 9.9 13 15 C17.62 15 22.24 15 27 15 C27 18.63 27 22.26 27 26 C22.38 26 17.76 26 13 26 C13.09686089 30.23638958 13.19953562 34.47178245 13.31738281 38.70751953 C13.35569674 40.1488374 13.39054543 41.59025168 13.421875 43.03173828 C13.46747446 45.10223886 13.52547444 47.17207433 13.5859375 49.2421875 C13.63306885 51.11173096 13.63306885 51.11173096 13.68115234 53.01904297 C13.69682309 56.11541776 13.69682309 56.11541776 16 58 C20.00757582 58.2226431 23.0881379 57.97796553 27 57 C27 60.63 27 64.26 27 68 C20.77788087 70.48884765 15.62714896 70.65854688 9 70 C4.20330165 67.93245761 2.55232618 65.74416053 0.6043396 60.96237183 C-0.39916448 57.70385934 -0.36907851 54.46819231 -0.29296875 51.09765625 C-0.28872391 50.3750914 -0.28447906 49.65252655 -0.28010559 48.9080658 C-0.26346418 46.62581307 -0.22584248 44.34448067 -0.1875 42.0625 C-0.17243423 40.50457015 -0.15874916 38.9466263 -0.14648438 37.38867188 C-0.11360882 33.59209943 -0.0619309 29.79620513 0 26 C-2.31 26 -4.62 26 -7 26 C-7 22.37 -7 18.74 -7 15 C-4.69 15 -2.38 15 0 15 C0 10.05 0 5.1 0 0 Z " fill="#FEFAFA" transform="translate(215,215)"/>
<path d="M0 0 C2.83203125 0.03255208 5.6640625 0.06510417 8.49609375 0.09765625 C8.49609375 6.69765625 8.49609375 13.29765625 8.49609375 20.09765625 C15.09609375 20.09765625 21.69609375 20.09765625 28.49609375 20.09765625 C28.49609375 24.05765625 28.49609375 28.01765625 28.49609375 32.09765625 C21.89609375 32.09765625 15.29609375 32.09765625 8.49609375 32.09765625 C8.49609375 38.36765625 8.49609375 44.63765625 8.49609375 51.09765625 C4.53609375 51.09765625 0.57609375 51.09765625 -3.50390625 51.09765625 C-3.50390625 44.82765625 -3.50390625 38.55765625 -3.50390625 32.09765625 C-9.77390625 32.09765625 -16.04390625 32.09765625 -22.50390625 32.09765625 C-22.50390625 28.13765625 -22.50390625 24.17765625 -22.50390625 20.09765625 C-16.23390625 20.09765625 -9.96390625 20.09765625 -3.50390625 20.09765625 C-3.54348652 13.88972711 -3.54348652 13.88972711 -3.59399414 7.68188477 C-3.5964917 6.91287842 -3.59898926 6.14387207 -3.6015625 5.3515625 C-3.60941772 4.16542358 -3.60941772 4.16542358 -3.61743164 2.95532227 C-3.4390318 0.03608708 -2.92971854 0.11426359 0 0 Z " fill="#FDF5F6" transform="translate(512.50390625,221.90234375)"/>
<path d="M0 0 C0 4.29 0 8.58 0 13 C-1.19625 13.2475 -2.3925 13.495 -3.625 13.75 C-7.79611363 14.84067989 -10.74826156 16.04387414 -14 19 C-18.30383712 26.52230971 -18.64595897 34.14092689 -18.75 42.625 C-18.77964844 43.81996094 -18.80929687 45.01492188 -18.83984375 46.24609375 C-18.90986656 49.16371066 -18.95727461 52.0818557 -19 55 C-23.29 55 -27.58 55 -32 55 C-32 37.18 -32 19.36 -32 1 C-27.71 1 -23.42 1 -19 1 C-18.67 3.97 -18.34 6.94 -18 10 C-17.54109375 9.44570312 -17.0821875 8.89140625 -16.609375 8.3203125 C-15.99578125 7.59585938 -15.3821875 6.87140625 -14.75 6.125 C-14.14671875 5.40570313 -13.5434375 4.68640625 -12.921875 3.9453125 C-8.8882871 -0.1374655 -5.63598977 -0.21676884 0 0 Z " fill="#FDF7F8" transform="translate(431,229)"/>
<path d="M0 0 C2.625 0.4375 2.625 0.4375 4.55957031 2.4831543 C6.94724278 5.89842907 8.61829461 9.34457822 10.296875 13.14453125 C10.62415588 13.86992599 10.95143677 14.59532074 11.28863525 15.34269714 C12.32423157 17.64214422 13.34973794 19.9459294 14.375 22.25 C15.07876348 23.81735543 15.78318388 25.38441607 16.48828125 26.95117188 C18.20814008 30.77657911 19.91896921 34.60590705 21.625 38.4375 C22.07488281 37.93605469 22.52476562 37.43460938 22.98828125 36.91796875 C23.79845703 36.18513672 23.79845703 36.18513672 24.625 35.4375 C26.8125 35.75 26.8125 35.75 28.625 36.4375 C29.25 38.3125 29.25 38.3125 29.625 40.4375 C28.965 41.0975 28.305 41.7575 27.625 42.4375 C26.305 42.4375 24.985 42.4375 23.625 42.4375 C23.625 43.0975 23.625 43.7575 23.625 44.4375 C20.45666132 44.78953763 19.07654844 44.78280175 16.5 42.8125 C14.625 40.4375 14.625 40.4375 11.625 34.4375 C4.035 34.1075 -3.555 33.7775 -11.375 33.4375 C-11.87 35.9125 -11.87 35.9125 -12.375 38.4375 C-13.32088394 40.98411061 -13.94211962 42.13896181 -16.1875 43.6875 C-18.69562866 44.54742983 -20.74061128 44.48975234 -23.375 44.4375 C-18.80971122 34.07730312 -14.18340134 23.74485673 -9.5 13.4375 C-9.02393311 12.38111328 -8.54786621 11.32472656 -8.05737305 10.23632812 C-7.60789307 9.25083984 -7.15841309 8.26535156 -6.6953125 7.25 C-6.29586426 6.36957031 -5.89641602 5.48914063 -5.48486328 4.58203125 C-4.02766192 1.76635665 -3.17603104 0.58505835 0 0 Z " fill="#D12837" transform="translate(400.375,98.5625)"/>
<path d="M0 0 C3.13558736 2.1622343 5.07805042 4.8475071 6.76171875 8.21484375 C7.46835643 12.98464812 7.83014629 17.38618892 5.33984375 21.6484375 C1.74542479 25.83424591 -1.36429905 28.82480331 -6.97265625 29.5859375 C-13.99796427 29.74063988 -19.02189692 29.19297976 -24.23828125 24.21484375 C-26.97170895 20.9456021 -28.15145991 17.92181751 -28.67578125 13.65234375 C-27.98193806 8.20071866 -26.33107912 5.26012867 -22.36328125 1.46484375 C-14.95973131 -3.86571221 -7.95778001 -4.39319486 0 0 Z " fill="#D12938" transform="translate(243.23828125,113.78515625)"/>
<path d="M0 0 C4.32193523 4.38033976 6.16598484 7.54157449 6.3125 13.6875 C6.24329014 19.46652333 5.65354902 22.50332429 2 27 C-2.79290347 30.73846471 -6.57584862 31.65343382 -12.63671875 31.38671875 C-17.43313541 30.60185057 -20.11802445 27.95348708 -23.3125 24.5 C-26.65249321 19.55186191 -26.67130355 13.81183344 -26 8 C-23.80553298 3.7678136 -20.78717597 -0.80549601 -16.25 -2.75 C-9.91034543 -3.45440606 -5.44384188 -3.62922792 0 0 Z " fill="#D02131" transform="translate(371,243)"/>
<path d="M0 0 C9.24 0 18.48 0 28 0 C28 8.91 28 17.82 28 27 C18.76 27 9.52 27 0 27 C0 18.09 0 9.18 0 0 Z " fill="#FDFDFD" transform="translate(285,395)"/>
<path d="M0 0 C1.010625 0.556875 2.02125 1.11375 3.0625 1.6875 C4.5165625 2.3371875 4.5165625 2.3371875 6 3 C9.04990627 1.72512465 9.04990627 1.72512465 12 0 C15.99069931 -0.58197698 17.62401025 -0.20642575 21.1875 1.75 C24.74645129 4.59716103 26.56182413 6.68547238 28 11 C28.08143855 12.62719482 28.1075302 14.25751719 28.09765625 15.88671875 C28.09443359 16.82451172 28.09121094 17.76230469 28.08789062 18.72851562 C28.07532227 20.19321289 28.07532227 20.19321289 28.0625 21.6875 C28.05798828 22.67556641 28.05347656 23.66363281 28.04882812 24.68164062 C28.03704303 27.12115474 28.02059011 29.56054689 28 32 C25.625 31.6875 25.625 31.6875 23 31 C20.96991194 27.95486791 20.74976547 27.275409 20.69140625 23.83984375 C20.66626953 23.04642578 20.64113281 22.25300781 20.61523438 21.43554688 C20.57999734 19.76635545 20.54876542 18.09707479 20.52148438 16.42773438 C20.49505859 15.63560547 20.46863281 14.84347656 20.44140625 14.02734375 C20.42795166 13.30281006 20.41449707 12.57827637 20.40063477 11.83178711 C20.13163298 9.58630343 20.13163298 9.58630343 17 8 C14.45792029 7.66656449 14.45792029 7.66656449 12 8 C9.47871644 10.52128356 9.70646931 11.51239013 9.5859375 15.0078125 C9.54726563 15.99394531 9.50859375 16.98007813 9.46875 17.99609375 C9.42234375 19.54490234 9.42234375 19.54490234 9.375 21.125 C9.33632813 22.16527344 9.29765625 23.20554688 9.2578125 24.27734375 C9.16335234 26.85138311 9.07778786 29.42541155 9 32 C6.13275314 31.42655063 5.1385485 31.1385485 3 29 C2.7173256 26.18491268 2.53358813 23.44671 2.4375 20.625 C2.37722058 19.0962112 2.31352713 17.56755245 2.24609375 16.0390625 C2.22216553 15.36053223 2.1982373 14.68200195 2.17358398 13.98291016 C1.99158097 11.90382645 1.55695161 10.00839277 1 8 C-3.65052872 7.73067479 -3.65052872 7.73067479 -8 9 C-8.0093457 9.55461914 -8.01869141 10.10923828 -8.02832031 10.68066406 C-8.08215722 13.20466481 -8.16577254 15.72683814 -8.25 18.25 C-8.26417969 19.12269531 -8.27835937 19.99539062 -8.29296875 20.89453125 C-8.53950412 27.35375788 -8.53950412 27.35375788 -10.859375 30.609375 C-13 32 -13 32 -16 32 C-16.14584726 28.12539922 -16.23425444 24.25150883 -16.3125 20.375 C-16.35439453 19.28058594 -16.39628906 18.18617188 -16.43945312 17.05859375 C-16.57758485 7.94190021 -16.57758485 7.94190021 -13.59765625 4.3125 C-9.00664812 0.2254672 -6.24346953 -0.53823013 0 0 Z " fill="#D22A39" transform="translate(268,111)"/>
<path d="M0 0 C4.39281643 2.54286546 8.38826052 5.34051407 10.9375 9.83203125 C10.6075 10.82203125 10.2775 11.81203125 9.9375 12.83203125 C6.56324368 13.21766054 5.27633091 13.08398244 2.5 11.01953125 C1.654375 10.29765625 0.80875 9.57578125 -0.0625 8.83203125 C-5.02550368 5.67375618 -9.31743657 4.94892184 -15.0625 5.83203125 C-19.71689742 7.40773871 -23.63040205 9.3970291 -26.0625 13.83203125 C-27.8417361 19.16973955 -27.89460936 23.99445641 -25.5625 29.14453125 C-21.35345203 33.66925781 -17.27917983 35.51025515 -11.1875 36.39453125 C-6.70376212 36.19152737 -3.27295045 34.06364376 0.59375 31.9453125 C3.48537085 30.57179259 5.77753389 30.41624624 8.9375 30.83203125 C8.9375 33.83203125 8.9375 33.83203125 6.9375 36.26953125 C0.0542343 42.14898737 -5.50937179 43.56501114 -14.6484375 43.28125 C-21.03296012 42.44118123 -25.6735541 39.66159761 -29.9375 34.89453125 C-34.4156109 28.44078319 -36.12002796 23.67232478 -35.0625 15.83203125 C-33.16922722 9.19962282 -28.64886034 4.68110634 -23.0625 0.83203125 C-16.28093172 -2.59323544 -7.05826006 -2.69186194 0 0 Z " fill="#D12837" transform="translate(205.0625,100.16796875)"/>
<path d="M0 0 C4.15422393 2.79958569 7.61888159 6.42526317 9.875 10.9375 C10.47601744 16.74733528 9.86594376 20.35444837 6.48046875 25.171875 C3.03179069 28.96458177 -0.70770954 30.62547586 -5.7578125 31.27734375 C-12.34714478 31.51747977 -12.34714478 31.51747977 -14.90625 29.609375 C-16.72503363 27.11437695 -16.32455944 24.93089162 -16.125 21.9375 C-15.135 22.2675 -14.145 22.5975 -13.125 22.9375 C-8.01503095 23.54376751 -4.34259882 23.7654672 0 20.8125 C2.23196906 17.39014744 2.70828611 15.93727332 1.875 11.9375 C-0.15618591 8.9234822 -1.66529093 7.2648127 -5.28515625 6.453125 C-9.33543116 6.2097028 -11.33072336 6.44871438 -14.8671875 8.625 C-18.94179235 13.04151872 -17.78514607 19.96255955 -17.75 25.5625 C-17.75 28.01305543 -17.7624276 30.46365182 -17.7890625 32.9140625 C-17.78342285 33.99768066 -17.7777832 35.08129883 -17.77197266 36.19775391 C-18.125 38.9375 -18.125 38.9375 -19.45849609 40.81396484 C-21.125 41.9375 -21.125 41.9375 -24.125 41.9375 C-24.27415437 37.36610982 -24.38258516 32.7961577 -24.45458984 28.22290039 C-24.48462575 26.66991483 -24.525469 25.11709697 -24.57763672 23.56469727 C-25.05467517 8.99631722 -25.05467517 8.99631722 -21.3125 4.5 C-15.16146742 -1.17313281 -7.85765366 -2.67160224 0 0 Z " fill="#D12736" transform="translate(323.125,112.0625)"/>
<path d="M0 0 C15.18 0 30.36 0 46 0 C45 5 45 5 44 6 C38.39 6 32.78 6 27 6 C27 18.54 27 31.08 27 44 C25.35 43.67 23.7 43.34 22 43 C19.53894455 39.30841682 19.74424207 36.53376446 19.8046875 32.26953125 C19.8075174 31.51911057 19.81034729 30.76868988 19.81326294 29.99552917 C19.82444938 27.60102325 19.84955072 25.20689269 19.875 22.8125 C19.88503181 21.18815645 19.89415731 19.56380703 19.90234375 17.93945312 C19.92438363 13.959491 19.9589026 9.97980912 20 6 C18.80761719 6.05800781 17.61523438 6.11601563 16.38671875 6.17578125 C14.82035159 6.22267847 13.25394216 6.26817868 11.6875 6.3125 C10.50897461 6.3753418 10.50897461 6.3753418 9.30664062 6.43945312 C7.09819357 6.48644136 5.15782801 6.47894512 3 6 C0 2.39196941 0 2.39196941 0 0 Z " fill="#D12838" transform="translate(321,99)"/>
<path d="M0 0 C3.46749495 2.47678211 4.77506928 3.80036951 5.5625 8 C4.87642343 11.65907504 3.57265686 13.35167676 1 16 C-2.69725375 17.84862688 -6.96461442 17.47587094 -11 17 C-13.93423195 15.20353146 -15.47205355 14.0558929 -17 11 C-17.375 8.1875 -17.375 8.1875 -17 5 C-11.97949132 -1.10602407 -7.39961699 -1.87906211 0 0 Z " fill="#FDF9F9" transform="translate(239,119)"/>
<path d="M0 0 C3.86436475 2.04155119 6.85070057 4.15388522 9 8 C9.33 9.98 9.66 11.96 10 14 C0.76 14 -8.48 14 -18 14 C-15.31376196 4.59816684 -10.47507113 -1.62681029 0 0 Z " fill="#D12534" transform="translate(182,239)"/>
<path d="M0 0 C2.375 0.3125 2.375 0.3125 5 1 C7.029668 4.044502 7.24856301 4.60276328 7.22705078 8.01245117 C7.22689972 8.81305466 7.22674866 9.61365814 7.22659302 10.43852234 C7.21627045 11.29798965 7.20594788 12.15745697 7.1953125 13.04296875 C7.1924826 13.9265657 7.18965271 14.81016266 7.18673706 15.72053528 C7.17554097 18.54299454 7.15043751 21.36513662 7.125 24.1875 C7.11496946 26.10090688 7.10584374 28.01431873 7.09765625 29.92773438 C7.07560351 34.61861182 7.04107762 39.30925213 7 44 C4.625 43.6875 4.625 43.6875 2 43 C-0.029668 39.955498 -0.24856301 39.39723672 -0.22705078 35.98754883 C-0.22689972 35.18694534 -0.22674866 34.38634186 -0.22659302 33.56147766 C-0.21627045 32.70201035 -0.20594788 31.84254303 -0.1953125 30.95703125 C-0.1924826 30.0734343 -0.18965271 29.18983734 -0.18673706 28.27946472 C-0.17554097 25.45700546 -0.15043751 22.63486338 -0.125 19.8125 C-0.11496946 17.89909312 -0.10584374 15.98568127 -0.09765625 14.07226562 C-0.07560351 9.38138818 -0.04107762 4.69074787 0 0 Z " fill="#D22939" transform="translate(369,99)"/>
<path d="M0 0 C0.66 0 1.32 0 2 0 C3.17112946 2.62309099 4.33705964 5.24828142 5.5 7.875 C5.83386719 8.62136719 6.16773438 9.36773437 6.51171875 10.13671875 C6.98544922 11.20986328 6.98544922 11.20986328 7.46875 12.3046875 C7.76201172 12.96452637 8.05527344 13.62436523 8.35742188 14.30419922 C9 16 9 16 9 18 C3.72 18 -1.56 18 -7 18 C-5.02989474 11.79416842 -2.74844552 5.90148454 0 0 Z " fill="#FAEBEC" transform="translate(400,108)"/>
<path d="M0 0 C2.125 0.375 2.125 0.375 4 1 C4.625 2.875 4.625 2.875 5 5 C4.34 5.66 3.68 6.32 3 7 C1.68 7 0.36 7 -1 7 C-1 7.66 -1 8.32 -1 9 C-2.65 9 -4.3 9 -6 9 C-4.68 8.67 -3.36 8.34 -2 8 C-2.061875 6.576875 -2.061875 6.576875 -2.125 5.125 C-2 2 -2 2 0 0 Z " fill="#DE6570" transform="translate(425,134)"/>
<path d="M0 0 C2.625 0.375 2.625 0.375 5 1 C5 2.32 5 3.64 5 5 C3.35 5.33 1.7 5.66 0 6 C-0.66 4.68 -1.32 3.36 -2 2 C-1.34 1.34 -0.68 0.68 0 0 Z " fill="#90989E" transform="translate(476,440)"/>
<path d="M0 0 C1.6396875 0.2475 1.6396875 0.2475 3.3125 0.5 C6.87525873 1.06718184 6.87525873 1.06718184 10 1 C8.68 2.32 7.36 3.64 6 5 C2.83884224 3.63016497 2.0072908 3.0109362 0 0 Z " fill="#F1F1F2" transform="translate(473,444)"/>
</svg>
