<?xml version="1.0" encoding="UTF-8"?>
<svg version="1.1" xmlns="http://www.w3.org/2000/svg" width="596" height="497">
<path d="M0 0 C4.59061857 -0.1799147 9.153592 -0.10809821 13.74023438 0.10498047 C15.09858398 0.16661377 15.09858398 0.16661377 16.484375 0.22949219 C73.744934 3.12583268 128.13998324 22.81438732 172.74023438 59.10498047 C173.27503418 59.53681641 173.80983398 59.96865234 174.36083984 60.41357422 C188.78973644 72.1506077 202.44500401 85.30356857 213.74023438 100.10498047 C214.50980469 101.05759766 215.279375 102.01021484 216.07226562 102.99169922 C226.49046909 116.06777506 234.94640232 130.23982157 242.67773438 145.04248047 C243.20923096 146.05987305 243.74072754 147.07726562 244.28833008 148.12548828 C253.74023438 166.55932095 253.74023438 166.55932095 253.74023438 171.10498047 C254.69800781 171.0840332 255.65578125 171.06308594 256.64257812 171.04150391 C260.22819814 170.96858568 263.81375391 170.92299489 267.39990234 170.88525391 C268.94591325 170.86525543 270.49184965 170.83804716 272.03759766 170.80322266 C289.30153204 170.42428543 289.30153204 170.42428543 296.98242188 177.03466797 C297.52125 177.67662109 298.06007813 178.31857422 298.61523438 178.97998047 C299.44667969 179.93517578 299.44667969 179.93517578 300.29492188 180.90966797 C303.29437619 185.46559587 303.99005305 189.95960515 303.98074341 195.33126831 C303.9848674 197.1737188 303.9848674 197.1737188 303.98907471 199.0533905 C303.98199791 200.40115456 303.97472831 201.74891761 303.96728516 203.09667969 C303.96672057 204.52611788 303.96703852 205.95555665 303.96817017 207.38499451 C303.96874285 211.25440165 303.95700228 215.12368424 303.94302225 218.9930625 C303.93050076 223.04095162 303.92934327 227.08884376 303.92697144 231.13674927 C303.92076083 238.79705065 303.9043557 246.45729479 303.88427246 254.117571 C303.86190039 262.84063164 303.85091674 271.56369505 303.84088159 280.28677726 C303.81998909 298.22621735 303.7833181 316.165579 303.74023438 334.10498047 C290.21023438 334.10498047 276.68023438 334.10498047 262.74023438 334.10498047 C261.75023437 338.06498047 260.76023437 342.02498047 259.74023438 346.10498047 C245.59512621 391.54522432 219.41687736 429.01458465 185.74023438 462.10498047 C181.85434558 459.95311732 178.82951638 457.47344709 175.61523438 454.41748047 C170.30509918 449.49747765 164.6953811 445.22866041 158.74023438 441.10498047 C155.37556937 442.5103688 152.80276447 444.61117736 150.02197266 446.93774414 C118.43359559 473.35338856 79.97703558 488.22707097 39.74023438 495.10498047 C38.96421875 495.2392041 38.18820312 495.37342773 37.38867188 495.51171875 C-18.90083314 504.74184745 -80.56172064 488.83734487 -126.75976562 455.97998047 C-132.02953924 452.16660827 -137.0358938 448.07364774 -141.95507812 443.81982422 C-144.27116766 442.09649658 -145.42845045 441.40619123 -148.25976562 441.10498047 C-150.24399849 442.13945482 -150.24399849 442.13945482 -152.08789062 443.82373047 C-152.80589844 444.42701172 -153.52390625 445.03029297 -154.26367188 445.65185547 C-155.00488281 446.29638672 -155.74609375 446.94091797 -156.50976562 447.60498047 C-157.23550781 448.21857422 -157.96125 448.83216797 -158.70898438 449.46435547 C-163.6080076 453.62110245 -168.43376548 457.86385103 -173.25976562 462.10498047 C-185.08636726 452.15850525 -195.74363008 441.28488102 -204.94921875 428.86425781 C-206.27773653 427.08085633 -207.63336599 425.32088531 -208.99414062 423.56201172 C-225.53275724 401.93009696 -251.25976562 362.31727869 -251.25976562 334.10498047 C-251.81849365 334.12069092 -252.37722168 334.13640137 -252.95288086 334.15258789 C-255.53423553 334.21572971 -258.11542692 334.25421751 -260.69726562 334.29248047 C-262.01500977 334.33018555 -262.01500977 334.33018555 -263.359375 334.36865234 C-271.37512856 334.45738762 -279.19525117 332.93397106 -285.5820055 327.77166557 C-291.79015968 321.60449188 -292.8350925 314.05507188 -292.88186646 305.65888977 C-292.86417933 304.32564675 -292.84600542 302.99241011 -292.82739258 301.65917969 C-292.82597942 300.22915192 -292.8267793 298.79912053 -292.8296051 297.36909485 C-292.83103028 293.51617993 -292.80178833 289.66405517 -292.76673532 285.81132269 C-292.73532027 281.77416921 -292.73252921 277.7369944 -292.72660828 273.69973755 C-292.71111405 266.06775634 -292.67014611 258.43613643 -292.61986083 250.80431378 C-292.563829 242.11022353 -292.5364462 233.41611534 -292.51138365 224.72188926 C-292.45922569 206.84934034 -292.36759001 188.97728623 -292.25976562 171.10498047 C-275.75976562 171.10498047 -259.25976562 171.10498047 -242.25976562 171.10498047 C-241.26976562 168.13498047 -240.27976563 165.16498047 -239.25976562 162.10498047 C-222.57997472 122.22061913 -194.89286471 84.30860481 -160.25976562 58.10498047 C-159.06261332 57.16816721 -157.86604071 56.23061289 -156.66992188 55.29248047 C-111.20756056 20.00808992 -57.09989671 2.65265294 0 0 Z " fill="#D02030" transform="translate(292.259765625,-0.10498046875)"/>
<path d="M0 0 C169.62 0 339.24 0 514 0 C511.74406409 11.27967953 511.74406409 11.27967953 510.37109375 15.3046875 C510.06333008 16.20719238 509.75556641 17.10969727 509.43847656 18.03955078 C509.1081543 18.97524902 508.77783203 19.91094727 508.4375 20.875 C507.90914551 22.37329346 507.90914551 22.37329346 507.37011719 23.90185547 C492.64147133 64.86306308 467.82475568 98.71184548 437 129 C433.1141112 126.84813685 430.08928201 124.36846662 426.875 121.3125 C421.5648648 116.39249718 415.95514673 112.12367994 410 108 C406.63533499 109.40538833 404.06253009 111.5061969 401.28173828 113.83276367 C369.69336121 140.24840809 331.23680121 155.1220905 291 162 C290.22398437 162.13422363 289.44796875 162.26844727 288.6484375 162.40673828 C232.35893249 171.63686699 170.69804499 155.7323644 124.5 122.875 C119.23022639 119.0616278 114.22387182 114.96866728 109.3046875 110.71484375 C106.98859797 108.99151612 105.83131517 108.30121076 103 108 C101.01576714 109.03447435 101.01576714 109.03447435 99.171875 110.71875 C98.45386719 111.32203125 97.73585938 111.9253125 96.99609375 112.546875 C96.25488281 113.19140625 95.51367188 113.8359375 94.75 114.5 C94.02425781 115.11359375 93.29851562 115.7271875 92.55078125 116.359375 C87.65175803 120.51612198 82.82600014 124.75887056 78 129 C66.17339837 119.05352478 55.51613555 108.17990055 46.31054688 95.75927734 C44.98202909 93.97587587 43.62639963 92.21590484 42.265625 90.45703125 C25.33140416 68.30768041 0 28.81930868 0 0 Z " fill="#6D777F" transform="translate(41,333)"/>
<path d="M0 0 C0.82975342 0.6796582 0.82975342 0.6796582 1.67626953 1.37304688 C26.70951224 21.92977336 48.28983884 47.43335853 62 77 C62 77.66 62 78.32 62 79 C-70 79 -202 79 -338 79 C-336.37967311 74.13901933 -334.56582158 70.02624692 -332.0625 65.625 C-331.47251221 64.58605591 -331.47251221 64.58605591 -330.87060547 63.52612305 C-323.46132071 50.70102463 -314.81337748 39.06925615 -305 28 C-304.21625 27.10539062 -303.4325 26.21078125 -302.625 25.2890625 C-294.39478534 16.00149387 -285.77445275 7.65709855 -276 0 C-275.07445312 -0.73089844 -274.14890625 -1.46179688 -273.1953125 -2.21484375 C-255.30873737 -16.00544165 -235.24562524 -27.31639697 -214 -35 C-212.83726562 -35.42796875 -211.67453125 -35.8559375 -210.4765625 -36.296875 C-140.50207047 -60.88660973 -57.37864697 -47.65716921 0 0 Z " fill="#FEFDFD" transform="translate(436,92)"/>
<path d="M0 0 C139.26 0 278.52 0 422 0 C419.98159382 7.40082266 417.96542767 14.11140805 414.9375 21.0625 C414.5453833 21.96516602 414.1532666 22.86783203 413.74926758 23.79785156 C402.66117556 48.82231255 386.71717505 70.16274203 368 90 C367.33613281 90.79535156 366.67226563 91.59070313 365.98828125 92.41015625 C364 94 364 94 361.7109375 94.03515625 C358.038208 92.63274513 354.8892818 90.58977807 351.625 88.4375 C316.81515268 66.1809812 276.37509199 52.40336569 235 51 C234.96132813 49.20755859 234.96132813 49.20755859 234.921875 47.37890625 C234.6688722 35.1320826 234.6688722 35.1320826 230 24 C229.195625 22.63875 229.195625 22.63875 228.375 21.25 C223.31279523 16.45422706 217.49624833 13.72233148 210.5 13.375 C203.70689028 13.74011764 197.97550369 16.05529862 193.11328125 20.8671875 C187.75520435 27.53559313 186.71731796 34.61489454 186.375 42.9375 C186.31699219 44.10635742 186.31699219 44.10635742 186.2578125 45.29882812 C186.16455873 47.19887379 186.08124038 49.09940278 186 51 C184.86949219 51.00257813 183.73898437 51.00515625 182.57421875 51.0078125 C142.00108395 51.72796957 95.10450539 68.42022325 62.7265625 93.13671875 C61 94 61 94 59.06640625 93.91796875 C50.46126879 90.09527063 43.68705805 79.23096728 38 72 C37.20851562 71.02546875 36.41703125 70.0509375 35.6015625 69.046875 C22.48623088 52.58030722 12.82344855 34.16044516 4.5625 14.875 C4.22001221 14.08101807 3.87752441 13.28703613 3.5246582 12.46899414 C3.20843506 11.71352295 2.89221191 10.95805176 2.56640625 10.1796875 C2.28740479 9.51694824 2.00840332 8.85420898 1.72094727 8.17138672 C1 6 1 6 0 0 Z " fill="#FEFDFD" transform="translate(87,333)"/>
<path d="M0 0 C1.37381836 0.41693115 1.37381836 0.41693115 2.77539062 0.84228516 C42.64648546 13.14397661 76.94974677 35.46115004 107 64 C107.82757813 64.78503906 108.65515625 65.57007812 109.5078125 66.37890625 C115.15779112 71.88123735 120.09070095 77.83688716 125 84 C125.63421875 84.75539063 126.2684375 85.51078125 126.921875 86.2890625 C141.58908159 103.92607538 152.39884397 124.12175812 162.12890625 144.7734375 C162.49056885 145.54091309 162.85223145 146.30838867 163.22485352 147.09912109 C164 149 164 149 164 151 C154.76 151 145.52 151 136 151 C134.288125 147.596875 132.57625 144.19375 130.8125 140.6875 C117.92973596 115.70715969 99.92495668 90.88901938 78 73 C76.84975634 72.02663703 75.7000732 71.05261151 74.55078125 70.078125 C53.81115552 52.66496032 30.46737123 39.20061173 5 30 C4.13729492 29.68546875 3.27458984 29.3709375 2.38574219 29.046875 C-15.33557103 22.65751346 -33.20986547 18.49220334 -52 17 C-52.8559375 16.93151855 -53.711875 16.86303711 -54.59375 16.79248047 C-112.60056397 12.51818576 -170.39039823 28.47817377 -216 65 C-216.98097656 65.76957031 -217.96195312 66.53914063 -218.97265625 67.33203125 C-229.04297493 75.37379652 -238.84477903 83.99207163 -247 94 C-247.98519756 95.1735798 -248.97092905 96.34671147 -249.95703125 97.51953125 C-263.73935662 114.03872887 -274.37949459 131.75898918 -284 151 C-293.24 151 -302.48 151 -312 151 C-302.38647765 122.15943294 -284.60103846 96.14815202 -264 74 C-262.82877852 72.64977087 -261.66192767 71.29573509 -260.5 69.9375 C-254.15169839 62.68645825 -247.32230394 56.25136411 -239.79296875 50.23828125 C-238.00312652 48.80390419 -236.23264294 47.34482266 -234.48828125 45.85546875 C-171.282449 -7.86464901 -78.62899043 -24.38511819 0 0 Z " fill="#FDFDFD" transform="translate(372,20)"/>
<path d="M0 0 C0 22.44 0 44.88 0 68 C10.84875 67.938125 21.6975 67.87625 32.875 67.8125 C36.28183105 67.80581299 39.68866211 67.79912598 43.19873047 67.79223633 C45.92156902 67.76577416 48.64439076 67.73749341 51.3671875 67.70703125 C52.40892624 67.71049812 52.40892624 67.71049812 53.47171021 67.71403503 C63.53606005 67.73810897 71.99457511 66.88028926 79.5 59.5625 C83.32043157 53.03592941 83.33395967 46.84609256 83.4140625 39.4765625 C83.43342865 38.37524994 83.4527948 37.27393738 83.4727478 36.13925171 C83.53234928 32.63457901 83.57885162 29.12987312 83.625 25.625 C83.66319762 23.24347555 83.70225039 20.86196466 83.7421875 18.48046875 C83.83803488 12.65376646 83.92313901 6.82698201 84 1 C89.17517424 0.8676462 93.529336 1.13577405 98.5703125 2.46875 C100.39284546 2.94803955 100.39284546 2.94803955 102.25219727 3.43701172 C103.54348581 3.79004777 104.83441314 4.14440737 106.125 4.5 C106.78684296 4.67984436 107.44868591 4.85968872 108.13058472 5.04498291 C132.23529767 11.61553537 154.71249818 20.77725175 176.3125 33.375 C177.62178467 34.12475098 177.62178467 34.12475098 178.95751953 34.88964844 C179.7514209 35.36692383 180.54532227 35.84419922 181.36328125 36.3359375 C182.41962769 36.96314697 182.41962769 36.96314697 183.49731445 37.60302734 C183.99320068 38.06402832 184.48908691 38.5250293 185 39 C185 43 185 43 183.72509766 44.47290039 C183.12745605 44.92656982 182.52981445 45.38023926 181.9140625 45.84765625 C180.90267212 46.62363159 180.90267212 46.62363159 179.87084961 47.4152832 C179.12971924 47.95886475 178.38858887 48.50244629 177.625 49.0625 C176.86131104 49.63250732 176.09762207 50.20251465 175.31079102 50.78979492 C162.37477567 60.2888769 148.56706262 68.2872891 134 75 C133.28827637 75.3309668 132.57655273 75.66193359 131.84326172 76.00292969 C113.80800067 84.28543806 94.75933916 90.13963359 75.06201172 92.72363281 C73.06952198 92.99068211 71.08328154 93.30314466 69.09765625 93.6171875 C15.85444951 101.61160342 -42.09169338 86.27510274 -85.5078125 54.7734375 C-91.100636 50.63528319 -96.58251121 46.36494811 -102 42 C-100.59298034 38.54569543 -99.17175942 37.1676083 -95.94921875 35.3359375 C-95.11656494 34.85866211 -94.28391113 34.38138672 -93.42602539 33.88964844 C-92.52231201 33.38981445 -91.61859863 32.88998047 -90.6875 32.375 C-89.7483374 31.84938477 -88.8091748 31.32376953 -87.84155273 30.78222656 C-62.56759334 16.81209873 -29.54149997 0 0 0 Z " fill="#FEFEFE" transform="translate(256,393)"/>
<path d="M0 0 C4.59061857 -0.1799147 9.153592 -0.10809821 13.74023438 0.10498047 C15.09858398 0.16661377 15.09858398 0.16661377 16.484375 0.22949219 C73.744934 3.12583268 128.13998324 22.81438732 172.74023438 59.10498047 C173.27503418 59.53681641 173.80983398 59.96865234 174.36083984 60.41357422 C188.78973644 72.1506077 202.44500401 85.30356857 213.74023438 100.10498047 C214.50980469 101.05759766 215.279375 102.01021484 216.07226562 102.99169922 C226.49046909 116.06777506 234.94640232 130.23982157 242.67773438 145.04248047 C243.20923096 146.05987305 243.74072754 147.07726562 244.28833008 148.12548828 C253.74023438 166.55932095 253.74023438 166.55932095 253.74023438 171.10498047 C250.44023438 171.10498047 247.14023437 171.10498047 243.74023438 171.10498047 C243.15290527 169.84560669 243.15290527 169.84560669 242.55371094 168.56079102 C232.65898924 147.4500297 222.31724283 127.44638122 207.74023438 109.10498047 C207.03640625 108.20908203 206.33257812 107.31318359 205.60742188 106.39013672 C199.66663287 98.96947375 193.27622968 91.99914457 186.74023438 85.10498047 C186.02867187 84.35087891 185.31710937 83.59677734 184.58398438 82.81982422 C179.35669043 77.43185526 173.59812681 72.78632308 167.74023438 68.10498047 C166.98355469 67.46947266 166.226875 66.83396484 165.44726562 66.17919922 C152.09832492 55.08188706 137.10512557 46.09977463 121.74023438 38.10498047 C121.01320313 37.72245117 120.28617187 37.33992188 119.53710938 36.94580078 C105.51764057 29.65642272 90.81228452 24.74927499 75.74023438 20.10498047 C74.89525391 19.83669434 74.05027344 19.5684082 73.1796875 19.29199219 C27.31911923 4.88507195 -24.58637204 7.91626311 -70.13476562 21.54248047 C-71.06160156 21.81866211 -71.9884375 22.09484375 -72.94335938 22.37939453 C-107.32505144 32.98000869 -140.2089408 52.34777537 -166.25976562 77.10498047 C-167.64916573 78.32070556 -169.04458153 79.52960658 -170.44726562 80.72998047 C-177.30466034 86.72323195 -183.29446691 93.16688549 -188.98632812 100.27685547 C-190.43487665 102.07882992 -191.90671485 103.86249919 -193.40820312 105.62060547 C-210.06240987 125.22086323 -221.43571942 147.95973026 -232.25976562 171.10498047 C-235.55976563 171.10498047 -238.85976562 171.10498047 -242.25976562 171.10498047 C-228.9092677 127.76096525 -196.23811792 85.326432 -160.25976562 58.10498047 C-159.06261332 57.16816721 -157.86604071 56.23061289 -156.66992188 55.29248047 C-111.20756056 20.00808992 -57.09989671 2.65265294 0 0 Z " fill="#6B767E" transform="translate(292.259765625,-0.10498046875)"/>
<path d="M0 0 C0.75990234 0.05671875 1.51980469 0.1134375 2.30273438 0.171875 C50.40962811 4.01693099 96.2833756 26.05285319 132 58 C132.56235352 58.50063965 133.12470703 59.0012793 133.70410156 59.51708984 C140.214834 65.33950312 146.46628072 71.22401721 152 78 C152.94983192 79.11517047 153.90042971 80.22968884 154.8515625 81.34375 C188 120.62386556 188 120.62386556 188 135 C184.7 135 181.4 135 178 135 C177.3709375 133.76765625 176.741875 132.5353125 176.09375 131.265625 C171.20947111 121.78403901 166.24840138 112.66395695 160 104 C159.31550781 103.04222656 158.63101562 102.08445312 157.92578125 101.09765625 C122.53507161 52.74517863 70.39234062 20.3601945 11.0546875 11.03515625 C-47.0249324 2.67398476 -106.31592438 16.85610028 -153.4296875 52.015625 C-162.36557008 58.91445228 -170.78475081 66.26939141 -179 74 C-179.65871094 74.61617188 -180.31742188 75.23234375 -180.99609375 75.8671875 C-186.14450453 80.83724687 -190.57455278 86.38796575 -195 92 C-195.73347656 92.928125 -196.46695313 93.85625 -197.22265625 94.8125 C-206.89566399 107.36864409 -214.76142893 120.9272473 -222 135 C-225.3 135 -228.6 135 -232 135 C-223.76561679 106.24944167 -197.67405933 75.77887735 -175 57 C-174.07058594 56.18273437 -173.14117187 55.36546875 -172.18359375 54.5234375 C-124.69989291 12.91462381 -62.40937777 -4.92083039 0 0 Z " fill="#6D7880" transform="translate(320,36)"/>
<path d="M0 0 C21.78 0 43.56 0 66 0 C66.061875 8.146875 66.12375 16.29375 66.1875 24.6875 C66.22846802 28.53474731 66.22846802 28.53474731 66.27026367 32.4597168 C66.27902742 34.49787933 66.28667162 36.53604711 66.29296875 38.57421875 C66.3159906 40.15523376 66.3159906 40.15523376 66.33947754 41.76818848 C66.34285049 51.20682675 66.34285049 51.20682675 63 55 C59.31373007 58.44800698 57.15071266 59.49804543 52.1081543 59.45410156 C50.93119995 59.45361816 49.75424561 59.45313477 48.54162598 59.45263672 C47.31488159 59.43217285 46.08813721 59.41170898 44.82421875 59.390625 C43.68907837 59.38659668 42.55393799 59.38256836 41.38439941 59.37841797 C37.15193473 59.3575204 32.91970081 59.30167494 28.6875 59.25 C19.220625 59.1675 9.75375 59.085 0 59 C0 39.53 0 20.06 0 0 Z " fill="#FEFEFE" transform="translate(265,393)"/>
<path d="M0 0 C8.91 0 17.82 0 27 0 C28.2375 3.898125 28.2375 3.898125 29.5 7.875 C37.03063454 30.69819871 48.38559311 51.91939067 63 71 C63.68707031 71.89847656 64.37414062 72.79695313 65.08203125 73.72265625 C72.12074237 82.70499569 79.83538223 91.03560446 88 99 C84.29341203 102.7897264 80.45248225 106.35194568 76.4375 109.8125 C75.59155273 110.56563477 75.59155273 110.56563477 74.72851562 111.33398438 C71.47764795 114.12858992 70.43824648 115 66 115 C59.20717393 109.59154954 53.61638475 102.44933372 48.28515625 95.63574219 C47.37514702 94.47748576 46.45771871 93.32504056 45.53515625 92.17675781 C32.85602898 76.39108627 22.53910665 59.34880247 14 41 C13.70287109 40.36707031 13.40574219 39.73414063 13.09960938 39.08203125 C9.32791364 30.97987003 6.06552017 22.72921114 3.0625 14.3125 C2.75562256 13.46268555 2.44874512 12.61287109 2.13256836 11.73730469 C1.85292236 10.93325195 1.57327637 10.12919922 1.28515625 9.30078125 C1.03644775 8.59091064 0.78773926 7.88104004 0.53149414 7.1496582 C0 5 0 5 0 0 Z " fill="#FDFCFD" transform="translate(51,333)"/>
<path d="M0 0 C8.91 0 17.82 0 27 0 C21.67159423 37.29884042 -2.41562737 74.16528965 -27 102 C-27.49242187 102.56090332 -27.98484375 103.12180664 -28.4921875 103.69970703 C-37.90199447 114.37410918 -37.90199447 114.37410918 -42 116 C-42.94359375 115.12988281 -42.94359375 115.12988281 -43.90625 114.2421875 C-49.07712544 109.52298491 -54.29663055 105.06245589 -60 101 C-59.14719231 96.41784103 -56.41400729 94.20445706 -53.125 91.125 C-28.15143638 66.8719266 -9.2650927 33.43489975 0 0 Z " fill="#FDFDFD" transform="translate(518,333)"/>
<path d="M0 0 C2.97802112 1.50682778 5.62382784 3.14227174 8.28515625 5.15625 C7.67060929 9.15080527 5.57868888 11.90091336 3.28515625 15.15625 C-0.72414141 14.58349319 -3.28461964 13.24785006 -6.71484375 11.15625 C-11.67117528 9.01601593 -16.38368551 8.49844595 -21.71484375 9.15625 C-25.47882943 10.8681687 -25.47882943 10.8681687 -27.71484375 14.15625 C-28.09256291 17.63126629 -28.28778485 19.43325289 -26.07421875 22.2265625 C-23.30914391 24.48806411 -21.09000721 25.22060405 -17.65234375 26.15625 C4.26508286 32.46058844 4.26508286 32.46058844 10.28515625 41.15625 C12.27890513 47.13749663 12.28424201 53.83059022 9.59765625 59.59375 C5.94322986 65.78107192 0.88145689 68.13751126 -5.75 70.3984375 C-16.5758272 73.16551323 -27.81270955 70.66125723 -37.5078125 65.53125 C-40.42057827 63.71657115 -42.48722986 61.75513288 -44.71484375 59.15625 C-42.40484375 56.51625 -40.09484375 53.87625 -37.71484375 51.15625 C-34.33603525 52.42701453 -31.37559745 53.94485006 -28.27734375 55.78125 C-22.02002429 58.9568866 -15.5951662 59.16435585 -8.71484375 58.15625 C-5.00040406 56.38799959 -5.00040406 56.38799959 -2.71484375 53.15625 C-2.2578751 49.09939594 -2.2578751 49.09939594 -3.91748047 45.56567383 C-6.1270795 43.83299042 -8.01289887 43.27127427 -10.72265625 42.54296875 C-11.71007812 42.26388672 -12.6975 41.98480469 -13.71484375 41.69726562 C-15.77339404 41.13502408 -17.83326943 40.57760847 -19.89453125 40.02539062 C-27.84848578 37.76387117 -35.78039786 34.83462842 -40.27734375 27.46875 C-42.60855944 21.82418609 -43.08706916 15.52495091 -40.76171875 9.81640625 C-32.15711924 -4.80596697 -14.52518934 -6.13431828 0 0 Z " fill="#FDFAFA" transform="translate(129.71484375,219.84375)"/>
<path d="M0 0 C6.48583224 4.90916584 9.84759545 11.64051887 11.12109375 19.60546875 C11.12109375 22.57546875 11.12109375 25.54546875 11.12109375 28.60546875 C-2.07890625 28.60546875 -15.27890625 28.60546875 -28.87890625 28.60546875 C-25.09434078 37.98417964 -25.09434078 37.98417964 -21.12890625 40.73046875 C-15.96068915 42.12191182 -11.4179317 42.86878873 -6.4765625 40.41015625 C-4.94403904 39.47687241 -3.41396689 38.53954796 -1.88671875 37.59765625 C0.12109375 36.60546875 0.12109375 36.60546875 2.99609375 37.10546875 C4.94080492 38.47820604 6.56639306 39.805289 8.12109375 41.60546875 C6.67877311 45.18025271 4.95988472 46.71628323 1.74609375 48.79296875 C0.97523438 49.30214844 0.204375 49.81132812 -0.58984375 50.3359375 C-7.22653619 54.01669696 -17.2194 53.91840772 -24.4296875 51.88671875 C-26.40245956 50.93672366 -28.1054225 49.8856093 -29.87890625 48.60546875 C-30.91015625 47.94546875 -31.94140625 47.28546875 -33.00390625 46.60546875 C-38.31198276 41.80778421 -41.38756241 35.01509719 -42.39453125 28.02734375 C-42.72272396 17.1969842 -39.93112828 10.13074692 -32.61328125 2.265625 C-24.12216776 -5.86213003 -9.79752815 -5.74337857 0 0 Z " fill="#FDFAFA" transform="translate(189.87890625,238.39453125)"/>
<path d="M0 0 C4.29 0 8.58 0 13 0 C13.01458252 1.05912598 13.02916504 2.11825195 13.04418945 3.20947266 C13.10237327 7.15707342 13.17960407 11.10411571 13.26245117 15.05126953 C13.29560636 16.75625512 13.32366737 18.46134798 13.34643555 20.16650391 C13.38015568 22.62448634 13.43247794 25.08149406 13.48828125 27.5390625 C13.49467117 28.29555084 13.5010611 29.05203918 13.50764465 29.83145142 C13.63788056 34.57063371 14.41176935 37.8834241 17 42 C20.69990228 43.84995114 24.96167141 43.46986842 29 43 C32.55680172 40.89495409 33.69468936 39.91593192 35 36 C35.15370348 33.27116927 35.25728265 30.56302858 35.31640625 27.83203125 C35.33718735 27.03721848 35.35796844 26.2424057 35.37937927 25.42350769 C35.44472087 22.88659237 35.50368808 20.34957427 35.5625 17.8125 C35.60569986 16.09178628 35.64931463 14.37108292 35.69335938 12.65039062 C35.80038648 8.43369887 35.90169724 4.2169038 36 0 C40.29 0 44.58 0 49 0 C49 18.15 49 36.3 49 55 C44.71 55 40.42 55 36 55 C35.505 52.03 35.505 52.03 35 49 C34.278125 49.78375 33.55625 50.5675 32.8125 51.375 C27.63866163 56.20391581 22.79272331 56.45600493 15.94140625 56.3046875 C11.45340826 55.83979528 9.52461568 54.87723729 6 52 C2.40015061 47.32865497 -0.13199118 42.89713383 -0.11352539 36.89575195 C-0.11344986 36.07512772 -0.11337433 35.25450348 -0.11329651 34.40901184 C-0.10813522 33.52767075 -0.10297394 32.64632965 -0.09765625 31.73828125 C-0.0962413 30.83248825 -0.09482635 29.92669525 -0.09336853 28.99345398 C-0.08777001 26.09976909 -0.07521781 23.20616151 -0.0625 20.3125 C-0.05748481 18.35091258 -0.05292193 16.38932394 -0.04882812 14.42773438 C-0.03780107 9.61845979 -0.02053747 4.809243 0 0 Z " fill="#FDF8F9" transform="translate(264,235)"/>
<path d="M0 0 C4.29 0 8.58 0 13 0 C11.08377792 6.62080939 8.94346483 13.04251993 6.41796875 19.453125 C6.08130692 20.31580994 5.74464508 21.17849487 5.39778137 22.06732178 C4.689506 23.87976167 3.97933358 25.6914613 3.26733398 27.50244141 C2.19627742 30.2276665 1.13183698 32.95540345 0.06835938 35.68359375 C-1.62287935 40.01266848 -3.33317752 44.33372831 -5.06011963 48.64868164 C-5.66427221 50.16010276 -6.26509949 51.67285964 -6.86175537 53.18725586 C-7.62786963 55.12521323 -8.4104332 57.05555559 -9.19921875 58.984375 C-9.62420654 60.03850586 -10.04919434 61.09263672 -10.48706055 62.17871094 C-12.62224456 66.16034502 -15.34407893 69.03404604 -19.25 71.3125 C-26.51049379 73.12762345 -32.24144726 71.94918665 -39 69 C-38.39009109 65.44219804 -37.4216319 62.3171411 -36 59 C-35.31292969 59.08378906 -34.62585938 59.16757812 -33.91796875 59.25390625 C-33.01691406 59.35574219 -32.11585938 59.45757812 -31.1875 59.5625 C-30.29417969 59.66691406 -29.40085937 59.77132812 -28.48046875 59.87890625 C-25.86624428 60.15658709 -25.86624428 60.15658709 -23 59 C-21.40433076 52.54371009 -22.89380263 48.57577439 -25.515625 42.59375 C-25.88725769 41.71021851 -26.25889038 40.82668701 -26.64178467 39.91638184 C-27.82898917 37.10402931 -29.03901385 34.30218244 -30.25 31.5 C-31.04970418 29.61653308 -31.84789718 27.73242376 -32.64453125 25.84765625 C-34.11476809 22.37681511 -35.59278086 18.90957152 -37.08300781 15.44726562 C-37.40708618 14.6916333 -37.73116455 13.93600098 -38.06506348 13.1574707 C-38.67253204 11.75566899 -39.28977564 10.35804854 -39.91833496 8.96557617 C-41.19383968 6.11383342 -42 4.16522625 -42 1 C-37.71 1 -33.42 1 -29 1 C-25.69377468 8.81471438 -22.54192399 16.67063989 -19.49975586 24.59130859 C-17.76030353 29.10580347 -15.93339095 33.56491833 -14 38 C-11.89011498 32.29882133 -9.84232091 26.5857989 -7.9375 20.8125 C-5.59645601 13.73449982 -2.98846818 6.83078441 0 0 Z " fill="#FDF8F9" transform="translate(467,235)"/>
<path d="M0 0 C4.43189856 2.58364718 6.3185758 4.11762036 8.66015625 8.80078125 C6.35015625 11.11078125 4.04015625 13.42078125 1.66015625 15.80078125 C-2.33984375 13.80078125 -2.33984375 13.80078125 -4.96484375 12.17578125 C-9.52864672 10.31645411 -13.47502414 10.0967667 -18.33984375 10.80078125 C-22.00163979 12.53181211 -23.80173419 14.08330183 -26.21484375 17.30078125 C-28.26837897 23.68955748 -28.56632094 30.15913806 -25.71484375 36.30078125 C-21.76778608 40.4555788 -18.67738902 43.01262824 -12.83984375 43.23828125 C-8.72440666 43.05184366 -5.90787181 41.90916147 -2.33984375 39.80078125 C-0.68074371 39.1155008 0.98348189 38.44186262 2.66015625 37.80078125 C4.64015625 39.78078125 6.62015625 41.76078125 8.66015625 43.80078125 C7.17064607 48.2693118 3.61583006 50.58137648 -0.33984375 52.80078125 C-7.61173921 55.69943958 -15.62893505 56.13016097 -23.19140625 53.99609375 C-30.73838483 50.60813123 -36.93837582 44.58225617 -40.33984375 36.98828125 C-42.81102204 28.86408071 -42.04354762 20.63310675 -38.53125 12.984375 C-31.05061556 -0.7260337 -14.38025395 -5.16343622 0 0 Z " fill="#FDF9FA" transform="translate(248.33984375,236.19921875)"/>
<path d="M0 0 C4.29 0 8.58 0 13 0 C13 4.62 13 9.24 13 14 C17.62 14 22.24 14 27 14 C27 17.96 27 21.92 27 26 C22.38 26 17.76 26 13 26 C13.11966185 30.25436081 13.24220274 34.50842705 13.37231445 38.76245117 C13.4157163 40.2106424 13.45738744 41.65888654 13.49731445 43.10717773 C13.55489062 45.18489559 13.61862028 47.26234573 13.68359375 49.33984375 C13.72025146 50.59144287 13.75690918 51.84304199 13.79467773 53.13256836 C13.67803906 55.89630504 13.67803906 55.89630504 15 57 C17.01964199 57.07244053 19.04167124 57.08377188 21.0625 57.0625 C22.16722656 57.05347656 23.27195312 57.04445313 24.41015625 57.03515625 C25.69212891 57.01775391 25.69212891 57.01775391 27 57 C27 60.3 27 63.6 27 67 C21.51532777 70.55762523 16.33250572 70.81798695 10 70 C6.05585642 68.73758876 3.58279695 66.91941611 1.33081055 63.36669922 C-0.23720133 59.39992546 -0.38133925 55.95045379 -0.29296875 51.7578125 C-0.28872391 50.98944061 -0.28447906 50.22106873 -0.28010559 49.42941284 C-0.26341826 46.99424015 -0.22578641 44.5599192 -0.1875 42.125 C-0.17244023 40.46615785 -0.15875409 38.80730263 -0.14648438 37.1484375 C-0.11354759 33.0986341 -0.06183594 29.04946106 0 25 C-2.31 25 -4.62 25 -7 25 C-7 21.7 -7 18.4 -7 15 C-4.69 15 -2.38 15 0 15 C0 10.05 0 5.1 0 0 Z " fill="#FDF6F7" transform="translate(392,221)"/>
<path d="M0 0 C1.50046875 0.00386719 1.50046875 0.00386719 3.03125 0.0078125 C4.0315625 0.00523437 5.031875 0.00265625 6.0625 0 C8.53125 0.1328125 8.53125 0.1328125 9.53125 1.1328125 C9.61776611 2.54851373 9.63829904 3.9684075 9.62890625 5.38671875 C9.62640869 6.1557251 9.62391113 6.92473145 9.62133789 7.71704102 C9.61223389 8.69987061 9.60312988 9.6827002 9.59375 10.6953125 C9.573125 13.8096875 9.5525 16.9240625 9.53125 20.1328125 C15.80125 20.1328125 22.07125 20.1328125 28.53125 20.1328125 C28.53125 24.0928125 28.53125 28.0528125 28.53125 32.1328125 C22.26125 32.1328125 15.99125 32.1328125 9.53125 32.1328125 C9.53125 38.4028125 9.53125 44.6728125 9.53125 51.1328125 C5.24125 51.1328125 0.95125 51.1328125 -3.46875 51.1328125 C-3.46875 44.8628125 -3.46875 38.5928125 -3.46875 32.1328125 C-9.73875 32.1328125 -16.00875 32.1328125 -22.46875 32.1328125 C-22.46875 28.1728125 -22.46875 24.2128125 -22.46875 20.1328125 C-16.19875 20.1328125 -9.92875 20.1328125 -3.46875 20.1328125 C-3.50833027 13.92488336 -3.50833027 13.92488336 -3.55883789 7.71704102 C-3.56133545 6.94803467 -3.56383301 6.17902832 -3.56640625 5.38671875 C-3.57426147 4.20057983 -3.57426147 4.20057983 -3.58227539 2.99047852 C-3.40525439 0.09380584 -2.90347042 0.15619936 0 0 Z " fill="#FCF2F3" transform="translate(507.46875,227.8671875)"/>
<path d="M0 0 C0 4.62 0 9.24 0 14 C-1.36125 14.226875 -2.7225 14.45375 -4.125 14.6875 C-8.86753558 15.76873846 -11.65867113 17.34044933 -15 21 C-18.52217341 28.18014146 -18.54152579 35.10070992 -18.6875 43 C-18.72166016 44.25167969 -18.75582031 45.50335938 -18.79101562 46.79296875 C-18.87300395 49.8616746 -18.93819015 52.93082141 -19 56 C-23.29 56 -27.58 56 -32 56 C-32.02463993 48.32788327 -32.04283123 40.65578935 -32.05493164 32.98364258 C-32.05997377 30.37133381 -32.06680725 27.75902789 -32.07543945 25.14672852 C-32.08751036 21.40119732 -32.09322935 17.65570328 -32.09765625 13.91015625 C-32.10281754 12.73413345 -32.10797882 11.55811066 -32.11329651 10.34645081 C-32.11340981 8.72488319 -32.11340981 8.72488319 -32.11352539 7.07055664 C-32.115746 6.11347305 -32.11796661 5.15638947 -32.12025452 4.17030334 C-32 2 -32 2 -31 1 C-28.98035801 0.92755947 -26.95832876 0.91622812 -24.9375 0.9375 C-23.28041016 0.95103516 -23.28041016 0.95103516 -21.58984375 0.96484375 C-20.73519531 0.97644531 -19.88054687 0.98804688 -19 1 C-18.67 3.97 -18.34 6.94 -18 10 C-17.278125 9.071875 -16.55625 8.14375 -15.8125 7.1875 C-11.41969681 1.94088436 -6.80847536 0 0 0 Z " fill="#FDF5F6" transform="translate(357,234)"/>
<path d="M0 0 C3.68676833 0.71936943 4.42361554 2.45039893 6.5625 5.5 C7.91662065 8.01362091 9.08106258 10.59617446 10.234375 13.20703125 C10.56165588 13.93242599 10.88893677 14.65782074 11.22613525 15.40519714 C12.26173157 17.70464422 13.28723794 20.0084294 14.3125 22.3125 C15.01626348 23.87985543 15.72068388 25.44691607 16.42578125 27.01367188 C18.14564008 30.83907911 19.85646921 34.66840705 21.5625 38.5 C22.01238281 37.99855469 22.46226562 37.49710938 22.92578125 36.98046875 C23.73595703 36.24763672 23.73595703 36.24763672 24.5625 35.5 C26.75 35.8125 26.75 35.8125 28.5625 36.5 C29.1875 38.375 29.1875 38.375 29.5625 40.5 C28.9025 41.16 28.2425 41.82 27.5625 42.5 C26.2425 42.5 24.9225 42.5 23.5625 42.5 C23.5625 43.16 23.5625 43.82 23.5625 44.5 C20.25 44.3125 20.25 44.3125 16.5625 43.5 C14.75 41.1875 14.75 41.1875 13.5625 38.5 C12.9025 37.18 12.2425 35.86 11.5625 34.5 C3.9725 34.17 -3.6175 33.84 -11.4375 33.5 C-12.0975 35.81 -12.7575 38.12 -13.4375 40.5 C-14.625 42.375 -14.625 42.375 -16.4375 43.5 C-20.125 44.1875 -20.125 44.1875 -23.4375 44.5 C-19.97332319 36.06749019 -16.3803126 27.69644593 -12.67089844 19.36938477 C-12.09206173 18.06667291 -11.51627959 16.76260008 -10.94335938 15.45727539 C-10.10172807 13.54009438 -9.25114928 11.62711759 -8.3984375 9.71484375 C-7.90134277 8.59198975 -7.40424805 7.46913574 -6.89208984 6.31225586 C-5.07613871 2.80135605 -3.94138413 0.80848905 0 0 Z " fill="#D22939" transform="translate(399.4375,98.5)"/>
<path d="M0 0 C4.05949084 2.27234447 6.60375757 5.14501515 8.6875 9.3125 C9.21877855 14.15497335 9.21291441 18.15220984 7.1875 22.625 C2.49444728 27.67003167 -1.7202404 30.57663913 -8.75 31 C-14.80481113 30.70525954 -18.93341542 28.41848038 -23.3125 24.3125 C-26.06872986 20.47048262 -26.86942701 17.09066644 -26.66015625 12.33203125 C-25.77568695 7.19415901 -23.30327509 4.08085619 -19.25 0.9375 C-12.99997657 -2.51995977 -6.54611147 -3.04014165 0 0 Z " fill="#D22938" transform="translate(240.3125,112.6875)"/>
<path d="M0 0 C4.9710149 2.53240382 8.49430567 5.98861134 11 11 C11.08308638 12.37548156 11.10736016 13.75485796 11.09765625 15.1328125 C11.09515869 15.85871582 11.09266113 16.58461914 11.09008789 17.33251953 C11.08098389 18.25403809 11.07187988 19.17555664 11.0625 20.125 C11.041875 23.05375 11.02125 25.9825 11 29 C0.77 29 -9.46 29 -20 29 C-20.061875 26.31875 -20.12375 23.6375 -20.1875 20.875 C-20.21481201 20.04210449 -20.24212402 19.20920898 -20.27026367 18.35107422 C-20.33229614 12.76014805 -19.42266617 8.59527343 -15.46484375 4.35546875 C-10.06823106 0.22864728 -6.75593784 -0.8202825 0 0 Z " fill="#FDFDFD" transform="translate(302,355)"/>
<path d="M0 0 C4.29 0 8.58 0 13 0 C13 18.15 13 36.3 13 55 C8.71 55 4.42 55 0 55 C0 36.85 0 18.7 0 0 Z " fill="#FDF8F9" transform="translate(364,235)"/>
<path d="M0 0 C1.546875 0.8353125 1.546875 0.8353125 3.125 1.6875 C4.07375 2.120625 5.0225 2.55375 6 3 C8.50240018 1.69882448 8.50240018 1.69882448 11 0 C15.29791716 -0.54700764 17.41495791 -0.31502266 21.25 1.75 C24.57431067 4.46989055 26.77980842 6.28203216 27.34057617 10.65722656 C27.3170105 12.13400879 27.3170105 12.13400879 27.29296875 13.640625 C27.2784668 15.24550781 27.2784668 15.24550781 27.26367188 16.8828125 C27.23853516 17.99398437 27.21339844 19.10515625 27.1875 20.25 C27.16719727 21.93996094 27.16719727 21.93996094 27.14648438 23.6640625 C27.11115645 26.44319264 27.0618252 29.22135363 27 32 C24.13275314 31.42655063 23.1385485 31.1385485 21 29 C20.72875977 27.16821289 20.72875977 27.16821289 20.69140625 24.97265625 C20.66626953 24.18052734 20.64113281 23.38839844 20.61523438 22.57226562 C20.5801618 20.90307073 20.54889337 19.23379144 20.52148438 17.56445312 C20.49505859 16.77103516 20.46863281 15.97761719 20.44140625 15.16015625 C20.42795166 14.43449463 20.41449707 13.70883301 20.40063477 12.96118164 C19.88830467 10.45323061 19.00692216 9.54833429 17 8 C14.45769153 7.58320703 14.45769153 7.58320703 12 8 C9.47871644 10.52128356 9.70646931 11.51239013 9.5859375 15.0078125 C9.54726563 15.99394531 9.50859375 16.98007813 9.46875 17.99609375 C9.42234375 19.54490234 9.42234375 19.54490234 9.375 21.125 C9.33632813 22.16527344 9.29765625 23.20554688 9.2578125 24.27734375 C9.16335234 26.85138311 9.07778786 29.42541155 9 32 C6.625 31.6875 6.625 31.6875 4 31 C1.97903111 27.96854667 1.74440739 27.26240256 1.65625 23.83984375 C1.62660156 23.04642578 1.59695313 22.25300781 1.56640625 21.43554688 C1.52203165 19.7662788 1.4777613 18.09700794 1.43359375 16.42773438 C1.40394531 15.63560547 1.37429688 14.84347656 1.34375 14.02734375 C1.32505859 13.30281006 1.30636719 12.57827637 1.28710938 11.83178711 C1.1455183 9.75279512 1.1455183 9.75279512 -1 8 C-4 7.58333333 -4 7.58333333 -7 8 C-9.03357356 11.05036034 -9.24497344 11.69084968 -9.2734375 15.125 C-9.2940625 15.91390625 -9.3146875 16.7028125 -9.3359375 17.515625 C-9.36197753 19.17177061 -9.38020791 20.82805744 -9.390625 22.484375 C-9.56858844 28.53513204 -9.56858844 28.53513204 -11.9140625 31.0625 C-14 32 -14 32 -16 32 C-16.1753878 28.14641528 -16.28121462 24.29386561 -16.375 20.4375 C-16.42527344 19.35146484 -16.47554687 18.26542969 -16.52734375 17.14648438 C-16.62462407 11.81228015 -16.66007948 8.01518546 -13.1640625 3.78515625 C-9.24992646 -0.18308947 -5.43423595 -0.36842278 0 0 Z " fill="#D12837" transform="translate(267,111)"/>
<path d="M0 0 C4.36689759 2.5354077 8.33323023 5.36743986 10.8671875 9.83203125 C10.5371875 10.82203125 10.2071875 11.81203125 9.8671875 12.83203125 C5.63553392 13.18342298 3.64461868 12.37912446 0.2421875 9.89453125 C-5.09602165 6.04118232 -9.59432126 4.88136209 -16.1328125 5.83203125 C-20.7671843 7.83305534 -24.50669698 10.46305828 -27.1328125 14.83203125 C-27.99172654 19.95456363 -27.70949463 24.51046803 -25.6328125 29.26953125 C-21.49820374 33.50750523 -17.45026707 35.54743157 -11.5703125 36.26953125 C-6.39587433 35.61096639 -2.44248192 33.7051442 1.8671875 30.83203125 C4.19918138 30.75298061 6.53551372 30.74404356 8.8671875 30.83203125 C8.8671875 33.83203125 8.8671875 33.83203125 7.58203125 35.33203125 C0.78055302 41.07217991 -5.0728014 43.50107725 -14.06640625 43.2421875 C-20.74860295 42.34839049 -26.08801908 39.3345241 -30.6328125 34.39453125 C-34.64776149 29.10931591 -35.66523396 23.90813718 -35.5078125 17.35546875 C-34.51424989 10.66962037 -29.89561428 6.20635697 -24.87890625 2.05859375 C-17.96552079 -2.79778888 -7.84324454 -2.92410239 0 0 Z " fill="#D12837" transform="translate(204.1328125,100.16796875)"/>
<path d="M0 0 C3.73777983 2.574915 6.71309099 4.83933858 8.8125 8.9375 C9.80142419 14.52642003 9.56850482 19.2440492 7.25 24.4375 C2.43025651 29.38082666 -1.10767772 31.16748889 -7.9375 31.375 C-12.59805664 31.36849084 -12.59805664 31.36849084 -15.00390625 29.609375 C-16.7742562 27.10868266 -16.38570841 24.91062615 -16.1875 21.9375 C-15.1975 22.2675 -14.2075 22.5975 -13.1875 22.9375 C-11.54573305 23.08002401 -9.89767345 23.15776755 -8.25 23.1875 C-6.96802734 23.22617188 -6.96802734 23.22617188 -5.66015625 23.265625 C-2.64257271 22.86518737 -1.34419634 22.06531201 0.8125 19.9375 C1.93499578 17.26808217 2.11974871 14.80887888 1.8125 11.9375 C0.10638912 8.73096424 0.10638912 8.73096424 -3.1875 6.9375 C-7.84135533 5.91264377 -10.85904924 6.10414753 -14.93359375 8.66015625 C-18.45539261 13.78110814 -17.81297501 18.93119757 -17.75 25 C-17.73340505 27.34499373 -17.73397735 29.69018849 -17.75390625 32.03515625 C-17.74302979 33.07164307 -17.73215332 34.10812988 -17.72094727 35.17602539 C-18.30810517 38.6513488 -19.40441088 39.83626614 -22.1875 41.9375 C-23.1775 41.9375 -24.1675 41.9375 -25.1875 41.9375 C-25.28719463 37.81167603 -25.35935233 33.68632903 -25.40722656 29.55957031 C-25.4272063 28.15905527 -25.4544002 26.75862218 -25.48925781 25.35839844 C-25.84352292 10.75017267 -25.84352292 10.75017267 -21.1875 3.9375 C-14.66123973 -1.25687042 -7.9374607 -2.64582023 0 0 Z " fill="#D12938" transform="translate(322.1875,112.0625)"/>
<path d="M0 0 C15.18 0 30.36 0 46 0 C45.67 1.65 45.34 3.3 45 5 C39.60041154 7.69979423 33.02516699 6.62342706 27 7 C26.67 19.21 26.34 31.42 26 44 C21 42 21 42 20 40 C19.91341431 37.44637396 19.88437484 34.9204558 19.90234375 32.3671875 C19.9037587 31.61535187 19.90517365 30.86351624 19.90663147 30.08889771 C19.91223535 27.6842249 19.92478843 25.27964473 19.9375 22.875 C19.9425145 21.24609509 19.9470775 19.61718873 19.95117188 17.98828125 C19.96220603 13.99215173 19.97947321 9.99609158 20 6 C18.80761719 6.03480469 17.61523438 6.06960937 16.38671875 6.10546875 C14.82032658 6.13360753 13.25391919 6.1609076 11.6875 6.1875 C10.90181641 6.21263672 10.11613281 6.23777344 9.30664062 6.26367188 C8.54931641 6.27333984 7.79199219 6.28300781 7.01171875 6.29296875 C6.31522217 6.3086792 5.61872559 6.32438965 4.90112305 6.34057617 C2.39281604 5.89122619 1.51168489 5.01981426 0 3 C0 2.01 0 1.02 0 0 Z " fill="#D02131" transform="translate(320,99)"/>
<path d="M0 0 C2.87274328 1.32359866 3.85418097 2.47866264 6 5 C7.1875 8.5 7.1875 8.5 7 12 C4.44369431 15.17810978 2.18501058 17.73814215 -1.98828125 18.23828125 C-6.15410332 18.3713075 -8.37869331 18.38831668 -12 16.125 C-14.37317421 13.6035024 -14.93025694 12.62768757 -15.3125 9.1875 C-14.92835642 5.2692355 -13.70743683 3.78706733 -11 1 C-7.5027666 -0.7486167 -3.81586672 -0.5570141 0 0 Z " fill="#FDFAFA" transform="translate(236,118)"/>
<path d="M0 0 C4.12115342 1.55515223 6.91771273 3.05461359 9 7 C9.33 9.31 9.66 11.62 10 14 C1.09 14 -7.82 14 -17 14 C-15.87170562 7.23023371 -15.87170562 7.23023371 -13.0625 4.1875 C-12.53785156 3.60355469 -12.01320312 3.01960937 -11.47265625 2.41796875 C-8.17376421 -0.75841802 -4.32281623 -0.45079648 0 0 Z " fill="#D12838" transform="translate(178,245)"/>
<path d="M0 0 C2.375 0.3125 2.375 0.3125 5 1 C7.029668 4.044502 7.24856301 4.60276328 7.22705078 8.01245117 C7.22689972 8.81305466 7.22674866 9.61365814 7.22659302 10.43852234 C7.21627045 11.29798965 7.20594788 12.15745697 7.1953125 13.04296875 C7.1924826 13.9265657 7.18965271 14.81016266 7.18673706 15.72053528 C7.17554097 18.54299454 7.15043751 21.36513662 7.125 24.1875 C7.11496946 26.10090688 7.10584374 28.01431873 7.09765625 29.92773438 C7.07560351 34.61861182 7.04107762 39.30925213 7 44 C4.625 43.6875 4.625 43.6875 2 43 C-0.029668 39.955498 -0.24856301 39.39723672 -0.22705078 35.98754883 C-0.22689972 35.18694534 -0.22674866 34.38634186 -0.22659302 33.56147766 C-0.21627045 32.70201035 -0.20594788 31.84254303 -0.1953125 30.95703125 C-0.1924826 30.0734343 -0.18965271 29.18983734 -0.18673706 28.27946472 C-0.17554097 25.45700546 -0.15043751 22.63486338 -0.125 19.8125 C-0.11496946 17.89909312 -0.10584374 15.98568127 -0.09765625 14.07226562 C-0.07560351 9.38138818 -0.04107762 4.69074787 0 0 Z " fill="#D33140" transform="translate(368,99)"/>
<path d="M0 0 C10.05859375 -0.09765625 10.05859375 -0.09765625 13 0 C14 1 14 1 14.1328125 3.46875 C14.13023437 4.4690625 14.12765625 5.469375 14.125 6.5 C14.12757813 7.5003125 14.13015625 8.500625 14.1328125 9.53125 C14 12 14 12 13 13 C8.66469082 13.14393457 4.33842269 13.04212061 0 13 C0 8.71 0 4.42 0 0 Z " fill="#FAE8E9" transform="translate(364,215)"/>
<path d="M0 0 C2.4375 1.5625 2.4375 1.5625 4 4 C3.93866496 7.4960972 3.65265114 9.93514814 1.8125 12.9375 C-0.95588471 14.56034621 -2.85545467 14.44922076 -6 14 C-8.375 12.375 -8.375 12.375 -10 10 C-10.61195145 6.3282913 -10.48706506 4.71186432 -8.375 1.625 C-5.28813568 -0.48706506 -3.6717087 -0.61195145 0 0 Z " fill="#6F7981" transform="translate(301,414)"/>
<path d="M0 0 C3.33890438 2.69719302 4.61763236 6.32453746 6.1875 10.1875 C7.115625 12.435625 8.04375 14.68375 9 17 C3.72 17 -1.56 17 -7 17 C-5.11994266 10.98381653 -2.93937169 5.57467045 0 0 Z " fill="#FDF7F7" transform="translate(399,108)"/>
<path d="M0 0 C0.625 1.875 0.625 1.875 1 4 C0.34 4.66 -0.32 5.32 -1 6 C-4.125 5.625 -4.125 5.625 -7 5 C-6.625 2.5625 -6.625 2.5625 -6 0 C-3.50907189 -1.24546405 -2.58919267 -0.7767578 0 0 Z " fill="#DF6671" transform="translate(428,135)"/>
<path d="M0 0 C1.67542976 0.28604898 3.34385343 0.61781233 5 1 C5 2.32 5 3.64 5 5 C3.35 5.33 1.7 5.66 0 6 C-0.38218767 4.34385343 -0.71395102 2.67542976 -1 1 C-0.67 0.67 -0.34 0.34 0 0 Z " fill="#8F979D" transform="translate(475,440)"/>
<path d="M0 0 C0.66 0 1.32 0 2 0 C2 0.99 2 1.98 2 3 C5.465 2.505 5.465 2.505 9 2 C7.68 3.65 6.36 5.3 5 7 C3.0625 6.3125 3.0625 6.3125 1 5 C0.25 2.375 0.25 2.375 0 0 Z " fill="#DADDDF" transform="translate(473,442)"/>
</svg>
